<svg width="125" height="125" viewBox="0 0 125 125" fill="none" xmlns="http://www.w3.org/2000/svg">
<circle cx="62.856" cy="62.033" r="62" fill="#F2F1FA"/>
<g clip-path="url(#clip0_272_144)">
<path d="M63.9107 103.944C61.0576 102.102 59.4288 99.3091 58.9614 95.9191C58.6161 93.411 58.787 90.8324 59.4985 88.3353C59.9938 86.5978 60.5798 84.9158 61.3506 83.2931C62.3167 81.2702 63.3457 79.303 64.7932 77.6173C64.9431 77.5543 65.0617 77.621 65.1768 77.721C65.2536 77.8173 65.264 77.9211 65.2117 78.0322C64.1967 79.1918 63.3282 80.4441 62.9411 82.0075C62.7492 82.7781 62.6446 83.5858 62.9411 84.3193C63.5305 85.7938 64.4548 86.4014 66.2092 85.7457C68.7728 84.7898 70.6005 82.7892 72.2224 80.5663C72.4421 80.2662 72.5084 79.8735 72.6863 79.5438C72.9967 79.1251 73.478 79.0955 73.907 78.9918C74.8139 78.7732 75.4173 78.1915 75.8428 77.3542C76.4253 75.9205 76.5543 74.3867 76.7043 72.8603C76.7357 72.7825 76.788 72.7269 76.8578 72.6861C77.6321 72.6306 78.4238 72.8491 79.1737 72.4787C81.7932 71.471 83.6452 69.4926 85.1659 67.1104C85.3787 66.7769 85.4659 66.3657 85.588 65.9841C86.2332 63.9983 85.2113 62.4682 83.2337 62.4497C83.0418 62.4497 82.8535 62.4534 82.6616 62.4645C82.2431 62.3793 81.8385 62.872 81.413 62.4941C83.415 61.0493 85.5705 59.9082 87.7505 58.8004C89.5258 57.9002 91.3605 57.1666 93.2125 56.4812C94.796 55.8958 96.4458 55.5068 98.0398 54.9363C99.3477 54.4658 100.729 54.3546 102.037 53.8952C103.01 53.5507 104.053 53.6063 105.064 53.4544C106.983 53.1691 108.908 53.2247 110.826 53.4469C111.015 53.4692 111.196 53.5359 111.381 53.584C111.74 53.836 112.134 54.0212 112.528 54.1916C115.263 55.392 115.832 58.1002 114.928 60.4565C114.419 61.7791 113.414 62.8313 112.459 63.8686C111.123 65.3209 109.511 66.4287 108.144 67.8402C107.708 68.2922 107.112 68.4552 106.606 68.7924C105.556 69.4889 104.552 70.2558 103.484 70.9338C101.789 72.0082 100.126 73.1566 98.6188 74.5163C98.0119 75.0609 97.4538 75.7241 97.1608 76.5577C97.0841 76.78 96.9097 77.0615 97.1538 77.2542C97.3526 77.4135 97.5584 77.2023 97.7398 77.0949C98.985 76.3428 100.202 75.5314 101.332 74.6126C103.045 73.227 104.932 72.1341 106.697 70.8448C108.364 69.6259 110.118 68.5441 111.712 67.2141C112.515 66.5435 113.292 65.8322 113.952 64.9838C114.457 64.3317 115.078 63.8168 115.845 63.5278C115.988 63.4722 115.992 63.4759 116.257 63.6241C115.842 64.5577 115.409 65.4802 114.705 66.2138C112.787 67.4883 111.064 69.0369 109.25 70.4632C108.716 70.8856 108.092 71.1412 107.534 71.5339C105.755 72.7899 103.941 73.9902 102.271 75.3981C101.531 76.0205 100.607 76.3761 100.014 77.2208C99.6861 77.6877 99.5117 78.1285 99.7488 78.6806C99.1559 79.277 98.8699 80.0884 98.4583 80.8108C98.2072 81.0702 97.9177 80.922 97.6422 80.8886C97.2445 80.8442 96.9829 81.0035 96.9411 81.4444C96.8678 82.215 96.526 82.8967 96.3063 83.6154C96.1354 84.1711 96.0098 84.7305 95.8982 85.3011C95.682 86.4125 95.1518 87.4388 94.4472 88.2242C92.9998 89.8432 91.643 91.54 90.2722 93.222C88.4411 95.4671 86.2263 97.1973 83.8998 98.7904C82.8779 99.4906 81.7722 100.035 80.6631 100.569C78.8389 101.45 76.8996 102.014 75.0859 102.91C74.9011 103.003 74.5976 103.047 74.6499 103.321C74.6988 103.566 74.9952 103.551 75.201 103.577C76.6101 103.747 77.953 103.34 79.2958 102.999C81.2595 102.499 83.0837 101.558 84.7718 100.454C86.8297 99.109 88.8073 97.6159 90.6908 95.9636C92.6231 94.2705 94.0426 92.1847 95.5773 90.1655C96.0028 89.6024 96.6341 89.3134 97.1015 88.7985C97.262 88.6206 97.5759 88.565 97.4712 89.0393C97.0353 90.1025 96.7632 91.2622 95.9052 92.0772C94.4368 93.7814 92.6231 95.0967 91.1861 96.8305C90.2304 97.9827 89.1108 98.9386 87.9528 99.8055C86.3518 101.002 84.6916 102.125 82.8046 102.818C81.7513 103.207 80.7433 103.744 79.6795 104.118C77.7891 104.777 75.8288 105.163 73.8617 105.289C71.7306 105.426 69.5541 105.659 67.444 105.048C66.2581 104.703 65.0268 104.503 63.8968 103.944H63.9107Z" fill="#D5C5B0"/>
<path d="M22.157 45.1C20.2805 42.7993 18.5052 40.4134 16.8414 37.9386C16.2973 37.1272 15.7358 36.301 15.4463 35.3229C15.5823 35.197 15.7253 35.2451 15.8334 35.3452C16.4822 35.9454 17.2007 36.4455 17.9087 36.9605C19.6108 38.1979 21.1281 39.728 23.0813 40.5542C23.1685 40.5912 23.2557 40.6394 23.3289 40.7061C24.9124 42.1621 26.8203 43.1253 28.4317 44.5702C29.2828 45.3334 30.4547 45.8373 31.5534 46.3152C31.7557 46.4041 31.9789 46.3893 32.1917 46.3856C32.6277 46.3782 32.9974 46.5338 33.245 46.9191C33.5764 47.4303 34.0228 47.6304 34.5948 47.6082C35.1878 47.5859 35.6831 47.7638 35.8609 48.464C35.9272 48.7233 36.1365 48.8419 36.3597 48.8011C37.4375 48.6085 38.2432 49.3976 39.1954 49.6606C39.3767 49.7088 39.5442 49.8644 39.736 49.8496C41.1556 49.7273 42.2961 50.5016 43.4785 51.1426C43.9354 51.3908 44.4481 51.413 44.9364 51.5168C46.3595 51.8206 47.6605 52.3689 48.8568 53.2692C50.1753 54.262 51.682 54.9437 52.997 55.9589C53.6562 56.4701 54.2352 57.074 54.849 57.6334C55.3269 58.0669 55.7629 58.4522 56.4395 58.1669C56.593 58.1003 56.7709 58.1447 56.9139 58.267C57.0778 58.9079 56.7011 59.3932 56.3663 59.7748C56.0035 60.1898 55.4455 60.0342 55.0409 59.7267C53.9561 58.8968 52.7284 58.304 51.6855 57.4186C51.1902 56.9962 50.6636 56.7072 50.0183 56.622C49.3765 56.5405 48.7592 56.3219 48.222 55.9144C48.1627 55.8699 48.1035 55.807 48.0372 55.7996C46.5792 55.681 45.1073 54.9956 43.6738 55.9033C43.475 56.0293 43.2832 56.0996 43.0704 55.97C42.7251 55.7588 42.2891 55.8736 41.9682 55.7069C40.8905 55.1512 39.6627 55.4365 38.5745 54.9067C37.9153 54.5844 37.141 54.614 36.433 54.3361C34.8739 53.7323 33.6182 52.6542 32.3277 51.6131C32.1777 51.4908 32.0661 51.3093 31.9022 51.2056C30.936 50.5869 29.9036 50.083 29.1467 49.1272C28.8293 48.727 28.3096 48.6011 27.776 48.5825C26.9598 48.5566 26.3739 48.1343 26.1367 47.2673C26.0321 46.8783 25.8332 46.6301 25.4217 46.6968C25.1217 46.7449 24.8217 46.9672 24.5288 46.7375C24.1207 46.4189 23.8347 45.978 23.5487 45.5409C23.3778 45.2815 23.5033 44.8221 23.1336 44.711C22.8023 44.6147 22.6 45.0111 22.2895 45.063C22.2407 45.0704 22.1954 45.0815 22.15 45.0926L22.157 45.1Z" fill="#BD7E2B"/>
<path d="M22.1573 45.1C22.3177 44.9518 22.4677 44.7888 22.6351 44.6554C23.2246 44.1849 23.5106 44.3146 23.6083 45.0926C23.6989 45.8076 24.3093 46.1336 24.6616 46.6523C24.7872 46.8375 24.9964 46.6375 25.1708 46.5523C25.7568 46.2633 26.1963 46.5152 26.3288 47.1858C26.4718 47.8934 26.995 48.401 27.6577 48.4047C28.7111 48.4047 29.5168 48.827 30.026 49.8311C30.0783 49.9311 30.1795 50.0385 30.2771 50.0756C31.9722 50.6832 33.1058 52.1762 34.5742 53.1469C35.7252 53.9101 36.9843 54.2509 38.2504 54.677C39.4259 55.0697 40.6885 54.8844 41.8116 55.5106C42.2406 55.7477 42.8684 55.3994 43.28 55.9107C43.2974 55.9329 43.4648 55.8773 43.5172 55.8144C44.1834 55.0104 45.0379 55.3772 45.8506 55.3179C47.2946 55.2068 48.4735 56.0255 49.7849 56.3404C50.7022 56.559 51.4103 57.0184 52.1671 57.5667C53.1612 58.2892 54.2111 58.9338 55.226 59.6303C55.5992 59.886 56.2619 59.9452 56.3108 59.6303C56.3945 59.0894 56.9177 58.8412 56.8828 58.3077C56.7398 57.978 56.8723 57.8409 57.1827 57.8298C57.3467 58.0113 57.3885 58.2521 57.3223 58.4633C56.8863 59.8674 56.4642 61.2901 55.2644 62.2274C55.0237 62.3089 54.7866 62.2756 54.5703 62.1496C53.0112 61.2642 51.2777 60.9937 49.5966 60.5417C49.2129 60.438 48.8397 60.538 48.4909 60.7381C47.7026 61.1938 46.9004 61.2271 46.0877 60.8048C45.6029 60.5528 45.0902 60.4824 44.5566 60.4899C43.8171 60.501 43.0777 60.5084 42.3417 60.375C41.8151 60.2787 41.393 60.3713 41.3547 61.1011C41.3372 61.4346 41.1524 61.7236 40.8106 61.8347C39.7956 61.5976 38.9271 60.9937 38.0447 60.4676C35.4148 58.8857 33.1267 56.8184 30.8561 54.714C28.6134 52.6393 26.5137 50.4164 24.5186 48.0861C23.6955 47.1265 22.9386 46.1003 22.1538 45.1074L22.1573 45.1Z" fill="#B1762A"/>
<path d="M57.1583 57.8372C56.9804 57.9335 56.8828 58.0817 56.8828 58.2966C56.3177 58.2558 55.7387 58.7745 55.1842 58.2262C54.8179 57.8668 54.4133 57.5482 54.0506 57.1851C53.1333 56.2663 52.0974 55.5624 51.0022 54.8918C49.9419 54.2398 48.8432 53.6248 47.8631 52.8097C47.4131 52.4355 46.8027 52.2429 46.2377 52.0687C45.5366 51.8501 44.8042 51.7538 44.0961 51.5649C43.3009 51.3537 42.5929 50.9054 41.8744 50.509C41.5535 50.3312 41.2082 50.0755 40.8873 50.1163C39.9735 50.2348 39.0771 49.9903 38.3655 49.5643C37.5842 49.0938 36.8378 49.0085 36.0147 48.9974C35.795 48.9974 35.6694 48.8196 35.6659 48.5899C35.6659 47.9193 35.2299 47.7822 34.7486 47.8119C34.0266 47.8563 33.4267 47.7193 33.0604 46.9709C32.9802 46.8116 32.7675 46.6189 32.621 46.6226C31.8885 46.6412 31.2607 46.4448 30.6119 46.0447C30.2841 45.8446 29.8934 45.7335 29.6074 45.426C29.5098 45.3222 29.3807 45.1963 29.2552 45.1814C28.1041 45.0592 27.5426 43.9959 26.7055 43.3846C25.9417 42.8289 25.2231 42.2102 24.3477 41.8545C24.2151 41.7989 24.0477 41.7656 23.964 41.6582C23.0293 40.4837 21.5295 40.2207 20.4936 39.2611C19.6879 38.5165 18.7705 37.9644 17.9544 37.2531C17.1591 36.5603 16.2872 35.9675 15.4501 35.3266C15.3977 35.2155 15.3489 35.1006 15.2966 34.9895C15.2024 34.5856 15.2826 34.3485 15.7396 34.4374C16.2314 34.5338 16.6918 34.656 17.1068 35.0154C18.0625 35.8416 19.2554 36.2046 20.3471 36.7715C20.5389 36.8715 20.7691 36.916 20.9261 37.0642C22.3735 38.4312 24.2709 38.9684 25.8719 40.0799C26.8764 40.7764 28.003 41.421 29.2063 41.7915C29.883 41.999 30.4271 42.4325 30.9956 42.8696C32.7814 44.2478 34.8044 45.0481 36.9704 45.4519C37.94 45.6334 38.8399 45.8891 39.6665 46.5485C40.4443 47.1709 41.4523 47.3673 42.4115 47.5785C43.0742 47.7267 43.695 47.9415 44.2636 48.3417C44.86 48.764 45.5018 49.0975 46.1749 49.3753C46.7121 49.5976 47.2108 49.8977 47.5875 50.383C47.8421 50.7091 48.1909 50.8647 48.5502 51.0129C49.3768 51.35 50.1755 51.7427 50.7929 52.454C50.8557 52.5281 50.7615 52.4689 50.8452 52.5022C52.5857 53.232 53.5588 55.0363 55.1493 55.9736C55.4423 56.1478 55.6794 56.396 55.8922 56.6775C56.3352 57.2592 56.5165 57.237 56.8723 56.6072C56.956 56.459 56.9804 56.17 57.256 56.3849C57.4234 56.7924 57.385 57.211 57.3118 57.6334C57.2804 57.7186 57.2316 57.7853 57.1618 57.8372H57.1583Z" fill="#CB882C"/>
<path d="M57.1583 56.3183C57.0013 56.448 57.0327 56.6369 57.0223 56.8073C57.0048 57.1222 56.7781 57.2186 56.5584 57.3186C56.2968 57.4372 56.0143 57.3223 55.9341 57.1074C55.6446 56.3516 54.9644 56.0664 54.4168 55.6551C53.789 55.1809 53.217 54.6548 52.6938 54.0658C52.2264 53.5434 51.7032 53.1581 51.0615 52.8839C50.4615 52.6283 50.1232 51.9318 49.4745 51.6576C49.1327 51.5131 48.8013 51.2871 48.4386 51.1686C48.0165 51.0315 47.6398 50.85 47.3922 50.435C47.3294 50.3313 47.2422 50.2164 47.1411 50.1683C45.6169 49.4162 44.2426 48.3159 42.6103 47.8194C41.3128 47.423 40.0118 47.1637 38.8957 46.2189C38.1981 45.6262 37.1727 45.741 36.3007 45.5076C34.194 44.9445 32.1501 44.2146 30.4794 42.6623C30.155 42.3622 29.7853 42.214 29.4156 42.0732C27.4868 41.3285 25.7254 40.243 23.9884 39.1168C23.3885 38.7278 22.6526 38.6722 22.1119 38.2054C21.3306 37.5274 20.4831 36.9902 19.5518 36.5864C18.495 36.127 17.4661 35.6305 16.5697 34.8377C16.3081 34.608 15.8337 34.6376 15.4535 34.5858C15.4187 34.582 15.3489 34.8451 15.2966 34.9822C14.592 33.6892 15.2199 33.1816 16.4092 33.0408C17.6684 32.8889 18.9031 33.2038 20.1413 33.3965C20.5807 33.4632 21.0481 33.4039 21.4597 33.6484C21.6376 33.9041 21.8503 34.0893 22.1747 34.0782C22.2689 34.0745 22.3666 34.093 22.4607 34.1115C22.7781 34.1708 23.1374 34.2597 23.092 34.6821C23.0362 35.1933 22.6212 34.7932 22.234 34.9822C23.256 35.3971 24.0791 35.9565 24.9197 36.4789C25.9486 37.1162 27.0682 37.5681 28.1495 38.0979C29.8341 38.9241 31.4909 39.8096 33.1441 40.7061C35.2787 41.8657 37.2633 43.3477 39.6002 44.0812C40.2874 44.2961 40.828 44.837 41.4523 45.2038C43.3044 46.293 45.1111 47.4712 46.8481 48.7641C47.1236 48.9679 47.4166 49.1791 47.741 49.2384C49.0873 49.4866 50.1616 50.2535 51.1905 51.1352C52.0555 51.3649 52.6554 51.9614 53.2135 52.6727C54.0855 53.7768 55.2539 54.5363 56.2689 55.481C56.7537 55.933 56.813 55.1476 57.1409 55.2328C57.3885 55.4403 57.3571 55.7255 57.3397 56.0071C57.3153 56.1331 57.2664 56.2442 57.1653 56.322L57.1583 56.3183Z" fill="#D69437"/>
<path d="M65.0688 77.758C64.9781 77.7136 64.8874 77.6654 64.7933 77.621C64.1899 76.9245 63.6144 76.1983 62.9761 75.5426C61.8669 74.4052 61.424 72.9936 61.3437 71.4117C61.3298 71.1079 61.3263 70.8041 61.3193 70.5003C61.7867 70.2965 62.2227 70.6374 62.704 70.567C63.9353 70.3891 64.8561 69.7149 65.6269 68.7405C66.0768 68.27 66.2687 67.6253 66.614 67.0881C66.6802 67.0585 66.7465 67.0437 66.8197 67.0511C67.8103 67.6809 67.908 68.2552 67.1825 69.1814C67.029 69.3777 66.8825 69.5815 66.6767 69.7186C66.3768 69.9149 66.4082 70.115 66.593 70.404C66.9837 71.0115 67.4162 71.5784 67.8556 72.1452C68.4451 72.901 69.4601 73.1715 70.2972 72.7565C71.0331 72.3934 71.8179 72.1786 72.5538 71.8081C73.3142 71.4228 73.9804 71.9007 74.6222 72.3008C74.7617 72.386 74.828 72.5824 75.1279 72.6269C74.7163 72.0785 74.2315 71.7266 73.8862 71.2375C73.6421 70.8893 73.4084 70.5447 73.2375 70.152C73.0735 69.7741 73.0491 69.4111 73.3421 69.0961C73.6177 68.7961 73.9804 68.7146 74.3362 68.8627C74.9361 69.1147 75.4872 69.474 76.0313 69.8371C76.1743 69.9334 76.2964 70.089 76.2929 70.2706C76.2719 71.1523 76.7323 71.9229 76.8126 72.7788C76.8544 74.4126 76.6277 75.9945 75.958 77.4839C75.8046 77.432 75.6895 77.3061 75.6964 77.1579C75.7278 76.5725 75.3825 76.1909 75.1035 75.7537C74.4129 74.6645 73.4398 74.3533 72.3969 75.0646C71.5005 75.6759 70.639 76.2613 69.5159 76.1872C69.1671 76.165 68.9788 76.4725 68.8183 76.7614C68.5428 77.2653 68.1033 77.4802 67.608 77.3468C66.6872 77.1023 65.871 77.3764 65.0618 77.7692L65.0688 77.758Z" fill="#9B7D56"/>
<path d="M97.4818 89.0393C97.3318 88.5651 97.1783 88.9393 97.0493 89.0467C95.2216 90.5805 94.0881 92.7516 92.5569 94.5521C91.8628 95.3672 90.8408 95.8192 90.1502 96.6565C89.355 97.6234 88.3121 98.231 87.3355 98.9238C85.7938 100.017 84.2557 101.121 82.5187 101.88C81.5386 102.31 80.5934 102.814 79.5645 103.107C78.117 103.522 76.6695 103.899 75.1523 103.785C75.0128 103.773 74.8732 103.722 74.7372 103.677C74.5593 103.622 74.3222 103.614 74.3012 103.359C74.2803 103.092 74.4931 102.947 74.6919 102.873C75.8115 102.455 76.8788 101.903 77.9984 101.476C80.1609 100.654 82.2815 99.7241 84.2034 98.3385C85.4206 97.4604 86.6379 96.5861 87.768 95.5895C89.062 94.4484 90.1746 93.1035 91.2419 91.7327C92.1244 90.5991 93.108 89.5728 94.0183 88.4762C94.8763 87.4426 95.5774 86.2941 95.7902 84.8492C95.9192 83.9637 96.3064 83.1227 96.5784 82.2632C96.6377 82.0743 96.7249 81.8853 96.7493 81.6927C96.8784 80.6516 97.0144 80.5442 97.9701 80.7627C98.1305 80.7998 98.3014 80.7961 98.4654 80.8072C98.42 81.3148 98.3712 81.8223 98.3259 82.3299C98.2735 82.3818 98.2142 82.4373 98.148 82.4484C97.1609 82.6226 97.0877 82.6485 97.0005 83.6414C96.9133 84.6454 96.7737 85.642 96.6517 86.6423C96.5959 87.1017 96.6447 87.3796 97.1993 87.2573C97.5376 87.1832 97.9003 87.2499 97.7608 87.8056C97.6806 88.2169 97.6911 88.654 97.4818 89.0319V89.0393Z" fill="#EADBC3"/>
<path d="M51.1521 51.2981C50.9708 51.1796 50.765 51.0907 50.608 50.9425C49.8651 50.2497 49.0385 49.7977 48.0549 49.542C46.7225 49.1938 45.7075 48.149 44.56 47.4007C44.1798 47.1524 43.845 46.8153 43.4369 46.6041C42.2545 45.9817 41.0896 45.3222 40.0188 44.4924C39.5653 44.1404 38.9864 44.1219 38.4841 43.8996C37.2773 43.3698 36.2205 42.514 35.0381 41.9842C33.5662 41.3247 32.2791 40.3281 30.8038 39.6724C29.4365 39.0648 28.146 38.2238 26.7473 37.6681C25.1987 37.0531 23.95 35.849 22.3875 35.271C22.2026 35.2006 21.8782 35.1228 21.9794 34.8487C22.077 34.5782 22.3596 34.4856 22.6386 34.682C22.7328 34.7487 22.8095 34.8709 23.0118 34.7487C22.9037 34.1707 22.4468 34.2633 22.0945 34.2707C21.6585 34.2818 21.3899 34.1818 21.4667 33.6483C23.1967 34.0892 24.9301 34.5115 26.6392 35.0487C29.3074 35.8897 31.9373 36.8382 34.5532 37.8348C36.2309 38.4757 37.8981 39.1426 39.5374 39.8873C39.9072 40.28 40.4548 40.2948 40.8733 40.5912C41.0826 40.7394 41.2884 40.8727 41.1872 41.1839C41.0965 41.4581 40.8768 41.5581 40.6222 41.5618C40.099 41.5692 39.6595 41.3025 39.2096 41.0691C38.8434 40.8801 38.4876 40.669 38.0586 40.7134C37.661 40.7579 37.4517 40.895 37.7691 41.3284C38.0481 41.7137 38.3376 42.0768 38.7527 42.3028C39.6421 42.7918 40.4931 43.3476 41.3756 43.8551C42.687 44.6109 43.9531 45.426 45.003 46.6226C45.7633 47.4896 46.9039 47.7007 48.02 47.6859C48.4176 47.6785 48.8187 47.5044 49.1989 47.7674C49.3628 48.086 49.5826 48.2935 49.9418 48.401C51.0056 48.7196 51.2916 49.1604 51.2847 50.3423C51.2847 50.572 51.3649 50.7869 51.3754 51.0129C51.3823 51.1574 51.3858 51.3315 51.1626 51.2907L51.1521 51.2981Z" fill="#EAA443"/>
<path d="M76.8158 72.7639C76.3658 72.0711 76.2159 71.2783 76.1287 70.4669C76.1182 70.3706 76.1705 70.2594 76.1461 70.1742C76.045 69.8519 74.0778 68.8627 73.7709 68.9887C73.3697 69.1554 73.1291 69.4296 73.3453 69.926C73.7185 70.7855 74.2522 71.508 74.9707 72.0748C75.0823 72.1637 75.1939 72.2601 75.2741 72.3786C75.3927 72.5527 75.452 72.7713 75.2567 72.9195C75.0928 73.0455 74.9149 72.9158 74.8137 72.7899C73.9173 71.6895 72.9686 71.7377 71.7723 72.3305C70.9491 72.738 70.0911 73.3382 69.0308 73.0825C68.6192 72.9825 68.2495 72.9417 67.9809 72.575C67.3985 71.7858 66.809 71.0078 66.2405 70.2076C66.1254 70.0446 65.9649 69.8001 66.3382 69.6926C66.7951 69.5666 66.9939 69.1184 67.259 68.7775C67.6915 68.2255 67.5764 67.9143 66.7741 67.1178C66.5614 66.6658 66.8892 66.2916 66.9346 65.8766C67.1264 65.1468 66.9241 64.4799 66.666 63.8167C66.5649 63.5537 66.3207 63.3055 66.5265 62.9795C67.8031 62.6423 69.1006 62.6608 70.405 62.6942C70.7434 62.7016 71.0642 62.7535 71.3712 62.9054C71.6467 63.098 71.7514 63.3833 71.8525 63.7056C72.2571 64.9986 72.728 66.2619 73.6802 67.24C74.301 67.8772 74.608 67.9365 75.3753 67.4845C75.8985 67.177 75.9682 67.5734 76.1217 67.9254C76.2612 68.2514 76.1077 68.7627 76.6274 68.8553C77.053 70.1372 77.1925 71.4376 76.8681 72.7676H76.8158V72.7639Z" fill="#A98B65"/>
<path d="M116.268 63.6242C115.518 63.7465 114.918 64.1651 114.43 64.7468C113.174 66.2398 111.772 67.5476 110.185 68.6368C108.58 69.7335 107.004 70.8708 105.382 71.9452C103.593 73.1271 101.873 74.4201 100.164 75.7353C99.3235 76.3836 98.3923 76.8949 97.4959 77.4543C97.3424 77.5507 97.1576 77.71 96.9727 77.5321C96.7983 77.3654 96.7948 77.1653 96.8611 76.9134C97.182 75.7131 97.9354 74.835 98.8213 74.1089C100.548 72.6973 102.379 71.4488 104.241 70.241C105.134 69.6631 106.006 68.9629 106.903 68.3812C108.943 67.0586 110.624 65.3062 112.407 63.6761C113.313 62.8462 113.994 61.7829 114.639 60.7418C115.333 59.6267 115.413 56.874 114.175 55.6292C113.53 54.9808 112.822 54.5807 112.075 54.1658C111.817 54.025 111.447 54.0027 111.388 53.5841C112.107 53.4618 112.668 53.9175 113.258 54.2102C113.892 54.5251 114.677 54.803 115.05 55.3587C115.888 56.6109 117.262 57.6112 116.962 59.5266C116.84 60.3047 117.147 61.1271 116.896 61.9681C116.725 62.5424 116.571 63.1092 116.271 63.6205L116.268 63.6242Z" fill="#EEDDC6"/>
<path d="M76.8682 72.7677C76.7566 71.7266 76.8403 70.6745 76.6659 69.6371C76.6171 69.3481 76.6729 69.0295 76.3729 68.848C76.1427 68.4849 76.0381 68.0774 75.9893 67.6513C76.1323 66.6955 76.788 66.0953 77.367 65.4469C77.4611 65.3432 77.6146 65.2987 77.6704 65.1468C78.8214 64.1058 80.0352 63.1685 81.4164 62.4979C81.8733 62.5683 82.25 62.1311 82.7174 62.2719C83.3173 62.3645 83.9312 62.3423 84.4962 62.6794C85.138 63.061 85.3647 63.4389 85.2601 64.2132C85.0822 65.5284 84.5032 66.7066 84.0289 67.9069C83.7463 68.622 83.5789 69.4333 82.9406 69.9891C81.8977 70.893 80.9316 71.8971 79.6097 72.349C79.4772 72.3935 79.3376 72.4565 79.2888 72.6232C78.504 73.0863 77.6914 72.9603 76.8717 72.7714L76.8682 72.7677Z" fill="#26A2C7"/>
<path d="M65.7838 68.7997C64.57 70.5151 62.9621 71.1227 61.3228 70.4966C60.7229 70.2187 60.2136 69.8075 59.8404 69.2443C59.6835 69.0072 59.4951 68.9405 59.2545 68.885C57.1896 68.4033 55.1213 67.9402 53.0704 67.4067C52.3345 67.2141 51.602 67.3623 50.873 67.2511C50.873 66.8065 51.2079 66.8473 51.4695 66.7806C52.2508 66.5805 52.9728 66.2101 53.7227 65.9174C53.9529 65.8285 54.1028 65.6321 54.2424 65.4246C54.3784 65.2839 54.5423 65.2024 54.7202 65.1505C55.4457 65.0542 55.8468 64.428 56.349 63.9872C56.7327 63.65 57.1024 63.287 57.4966 62.9572C58.1244 62.4311 58.6615 62.3904 59.3486 62.7979C59.3905 62.8238 59.4254 62.8646 59.4707 62.8757C61.2426 63.3277 62.3866 64.817 63.8027 65.8544C64.6363 66.4657 64.727 67.1993 64.1201 68.044C63.8445 68.4256 63.5411 68.7849 63.2341 69.1369C63.1504 69.2295 63.0807 69.3518 63.126 69.4777C63.1888 69.6519 63.3492 69.6481 63.4923 69.6333C63.9073 69.5852 64.2805 69.4407 64.584 69.1221C64.7863 68.9072 64.9955 68.6886 65.2746 68.5923C65.4873 68.5182 65.7385 68.407 65.7943 68.7997H65.7838Z" fill="#393229"/>
<path d="M40.814 61.8272C41.0023 61.4419 41.3337 61.1381 41.1802 60.5935C41.1035 60.3194 41.4418 60.0786 41.7138 60.1378C43.2799 60.4898 44.9436 59.9007 46.4713 60.738C47.0922 61.0789 47.7793 60.9566 48.3722 60.5528C48.9059 60.1897 49.4186 60.2823 50.0046 60.4046C51.2811 60.675 52.4949 61.1678 53.761 61.4568C54.3226 61.5827 54.6504 62.2755 55.3062 62.0977C55.4561 62.3163 55.341 62.4756 55.2015 62.6238C53.7157 64.2095 51.9613 65.1616 49.8058 65.0282C48.8361 64.9689 47.9083 64.6281 47.0015 64.2502C45.568 63.6908 44.0542 63.387 42.6416 62.7349C42.0243 62.4497 41.3895 62.2163 40.8175 61.8235L40.814 61.8272Z" fill="#9A6527"/>
<path d="M49.1396 47.8008C48.735 47.7971 48.3235 47.912 47.9398 47.9083C46.7993 47.8861 45.5994 47.686 44.8286 46.7487C43.8764 45.5891 42.6591 44.8963 41.4732 44.1294C40.5629 43.5403 39.6281 42.9809 38.6655 42.4992C38.0551 42.1917 37.783 41.5953 37.354 41.1359C37.1587 40.9284 37.2215 40.7394 37.5075 40.632C37.9819 40.4505 38.4318 40.4356 38.8887 40.6876C39.3945 40.9691 39.8932 41.2766 40.4652 41.3952C40.6989 41.4434 40.9675 41.4434 41.0652 41.1359C41.1593 40.8284 40.8733 40.7617 40.7199 40.6357C40.3501 40.3393 39.7572 40.4468 39.5305 39.8873C40.5734 40.2245 41.543 40.7469 42.5301 41.2248C43.8834 41.8842 45.2332 42.5511 46.4923 43.4032C47.5701 44.1331 48.6513 44.8518 49.5686 45.8114C49.4849 46.293 49.6035 46.6486 49.9907 46.9858C50.322 47.2748 50.9289 47.6897 50.5697 48.1824C50.2453 48.627 49.7151 48.138 49.2966 47.949C49.2338 47.9231 49.192 47.849 49.1396 47.7971V47.8008Z" fill="#F5B152"/>
<path d="M63.9106 103.944C63.9455 103.91 63.9909 103.844 64.0153 103.851C64.8454 104.122 65.6999 104.299 66.5266 104.544C67.6078 104.866 68.6612 105.159 69.7912 105.166C71.8875 105.181 73.9942 105.255 76.0485 104.814C77.775 104.444 79.498 104.055 81.1653 103.318C82.5081 102.725 83.7672 101.888 85.2077 101.547C85.3019 101.525 85.4275 101.521 85.4763 101.454C86.1809 100.506 87.2377 100.046 88.1376 99.3905C88.7863 98.9163 89.2572 98.2124 89.9862 97.8679C90.4082 97.6678 90.5582 97.2047 90.8477 96.875C92.2951 95.2374 93.9798 93.8666 95.4761 92.2884C95.5982 92.1587 95.7342 92.0624 95.9156 92.0735C95.6156 92.9515 94.9704 93.5851 94.4332 94.2705C92.5567 96.6786 90.3942 98.7941 88.012 100.624C85.9716 102.195 83.7393 103.447 81.371 104.359C78.8179 105.341 76.1532 105.77 73.4361 105.952C71.1341 106.104 68.8844 105.807 66.6696 105.259C65.6999 105.018 64.7443 104.585 63.9106 103.936V103.944Z" fill="#C0B4A1"/>
<path d="M66.5266 62.9795C66.7603 63.6612 67.1579 64.2873 67.1858 65.0357C67.1963 65.3247 67.2974 65.6433 67.0742 65.9063C67.0533 65.9212 67.0393 65.9434 67.0149 65.9508C66.4115 66.1879 66.3383 65.2395 65.9651 65.3321C65.4105 65.4729 65.0443 65.3025 64.8071 64.869C64.3537 64.0317 63.6003 63.5167 63.0108 62.8276C62.6446 62.3979 62.24 62.0052 61.9017 61.5495C61.4587 60.9493 60.946 60.4491 60.3286 60.0342C59.2299 59.3006 58.5672 58.2744 58.7067 56.8147C58.7835 56.0033 58.5568 55.2068 58.5498 54.3991C58.5463 53.9434 58.2184 53.6915 57.9534 53.4025C57.7301 53.0432 57.1756 52.8431 57.4511 52.2429C58.6335 52.6838 59.1671 53.7323 59.6031 54.8622C59.6799 55.066 59.7008 55.2735 59.8403 55.4698C61.2669 57.4704 62.676 59.4822 64.0851 61.4939C64.2455 61.7236 64.4687 61.7569 64.7059 61.8051C65.4488 61.9533 66.0383 62.3867 66.5266 62.9832V62.9795Z" fill="#5B544C"/>
<path d="M49.1397 47.8008C49.4815 47.9082 49.8198 48.0194 50.1617 48.1231C50.2872 48.1638 50.4302 48.2935 50.5314 48.1009C50.5942 47.9786 50.5418 47.8415 50.4511 47.76C50.1791 47.5155 50.0466 47.1302 49.7082 46.9598C49.0909 46.6523 49.2757 46.241 49.5687 45.8113C51.5603 47.3488 53.3042 49.1456 54.7447 51.2759C54.8668 51.4574 55.0308 51.6093 55.1738 51.7724C56.0039 52.5726 56.5236 53.6099 57.0851 54.6103C57.1967 54.8066 57.2177 55.04 57.0398 55.2327C56.7119 56.1589 56.7398 56.1218 55.9725 55.4438C55.0482 54.6288 54.0297 53.9212 53.2275 52.9579C52.6381 52.2503 52.0835 51.5167 51.1522 51.2944C51.1243 50.7054 51.208 50.0718 51.0859 49.5383C50.9708 49.0345 50.4267 48.6084 49.8547 48.5788C49.3211 48.5529 49.1362 48.3083 49.1397 47.7971V47.8008Z" fill="#EEA53F"/>
<path d="M99.7594 78.6805C99.4385 78.5546 99.2885 77.7914 99.6164 77.4468C100.108 76.9281 100.485 76.2983 101.203 75.9797C102.023 75.6129 102.63 74.8349 103.369 74.2829C104.541 73.4048 105.752 72.5787 106.927 71.708C107.52 71.2672 108.28 70.9374 108.856 70.504C109.812 69.7815 110.82 69.0998 111.709 68.2588C112.445 67.5586 113.296 66.9918 114.102 66.3731C114.28 66.236 114.492 66.1878 114.715 66.2138C114.161 67.1992 113.411 68.0106 112.598 68.7405C111.59 69.6444 110.544 70.5077 109.47 71.3227C108.511 72.0526 107.496 72.6935 106.505 73.3752C104.901 74.4829 103.286 75.5722 101.779 76.8355C101.081 77.4209 100.349 77.9618 99.7594 78.6768V78.6805Z" fill="#C0B3A0"/>
<path d="M57.0398 55.2327C56.9038 54.2472 56.2516 53.5581 55.7528 52.7875C55.54 52.4577 55.2889 52.1614 55.1703 51.7724C55.9795 51.6575 56.7364 51.8316 57.4514 52.2392C57.3816 52.7504 57.8874 52.8986 58.0269 53.2765C58.8291 55.2401 58.721 57.2259 58.013 59.1635C57.6537 60.1416 57.1305 61.0641 56.3492 61.7828C55.826 62.2607 55.4528 62.8943 54.9715 63.4241C54.5844 63.8501 53.96 63.902 53.6496 64.4281C53.3706 64.6652 53.0357 64.7578 52.7044 64.8652C52.0417 65.1468 51.3232 65.1801 50.65 65.4247C50.2489 65.5691 49.8548 65.3987 49.4606 65.358C48.5538 65.3654 47.7202 65.1727 47.0958 64.3984C47.061 64.3503 47.0261 64.2984 46.9912 64.2502C47.5911 64.2391 48.1771 64.391 48.7247 64.5874C50.4128 65.1876 51.9266 64.7281 53.402 63.876C54.1623 63.4389 54.7867 62.835 55.2959 62.0977C56.0493 61.2123 56.5411 60.1712 56.9561 59.0746C57.1096 58.667 57.1794 58.2632 57.1514 57.8335C57.1689 57.789 57.1759 57.7445 57.1689 57.6964C57.2805 57.1295 57.2665 56.559 57.1794 55.9885C57.1549 55.7291 57.1933 55.4587 57.0294 55.229L57.0398 55.2327Z" fill="#3D362A"/>
<path d="M76.0659 67.5327C76.0345 68.0032 76.3658 68.3811 76.3728 68.8442C76.3414 69.0628 76.2333 69.0369 76.1705 68.885C76.0868 68.6812 76.038 68.4552 75.9996 68.2329C75.9124 67.7476 75.9194 67.24 75.2427 67.8291C74.8346 68.1847 74.2836 68.0514 73.858 67.6883C73.0035 66.9584 72.4943 65.973 72.0862 64.9245C71.8281 64.2576 71.6083 63.5759 71.3677 62.8979C72.2431 63.1462 73.0767 63.487 73.6313 64.3058C74.1824 65.1208 75.0718 65.5951 75.5462 66.4842C75.9752 66.688 75.9961 67.1178 76.0624 67.5253L76.0659 67.5327Z" fill="#C8A97F"/>
<path d="M97.7606 87.813C97.6734 87.172 97.2862 87.3869 96.9619 87.5203C96.5608 87.6833 96.3375 87.561 96.3899 87.109C96.5224 85.942 96.6933 84.7787 96.7979 83.6043C96.913 82.289 97.0491 82.2446 98.3291 82.3335C98.4791 83.9488 98.1443 85.5345 98.0292 87.1313C98.0117 87.3647 97.9559 87.6314 97.7606 87.8092V87.813Z" fill="#F7E7D2"/>
<path d="M47.1025 64.4021C47.842 64.7763 48.543 65.2913 49.429 65.1505C50.1544 65.7581 50.873 66.4287 51.9054 66.1323C52.5192 65.9582 53.1645 65.8841 53.7261 65.5284C53.9039 65.4173 54.0923 65.2728 54.312 65.4506C54.2527 66.1656 53.6423 66.1545 53.2168 66.3398C52.4495 66.6769 51.6542 66.9474 50.8695 67.2437C48.979 67.24 47.8176 66.1508 47.1025 64.3984V64.4021Z" fill="#49423D"/>
<path d="M76.066 67.5327C75.8951 67.1845 75.7207 66.8399 75.5498 66.4917C76.3381 66.1842 76.8857 65.4543 77.6704 65.1394C77.1612 65.9545 76.495 66.651 76.066 67.529V67.5327Z" fill="#C2C8B9"/>
<path d="M91.3012 83.3857C92.0057 83.8599 92.222 84.486 92.0406 85.3789C91.6081 87.5129 90.5129 89.2579 89.2852 90.9361C88.1377 92.5033 86.7809 93.8518 85.2846 95.0152C83.6766 96.2674 81.992 97.4159 79.8993 97.5456C78.8041 97.6123 78.532 97.3307 78.6262 95.8895C78.7273 94.3965 79.4284 93.1183 80.112 91.8438C80.276 91.54 80.412 91.2177 80.562 90.9028C80.8026 90.1618 81.3293 89.6283 81.7967 89.0689C83.3348 87.2239 85.0892 85.6308 87.1436 84.4712C87.9772 84.0007 88.8562 83.5821 89.7735 83.3153C90.2792 83.1671 90.7989 83.0856 91.2977 83.3783L91.3012 83.3857Z" fill="#FFFEFE"/>
<path d="M107.614 56.3108C109.937 56.2182 111.447 58.2114 110.628 60.6307C109.955 62.6239 108.647 64.0539 107.189 65.358C106.02 66.3991 104.73 67.2142 103.171 67.5105C100.767 67.9662 99.0305 66.0064 99.6897 63.5056C100.684 59.7304 103.226 57.6261 106.55 56.3701C106.638 56.3368 106.735 56.3145 106.829 56.3145C107.091 56.3071 107.353 56.3145 107.618 56.3145L107.614 56.3108Z" fill="#82499C"/>
<path d="M94.8764 66.2064C93.8161 67.0992 92.6581 67.7402 91.263 67.7661C89.0028 67.8069 87.8588 65.7285 88.5285 63.5537C89.233 61.2678 90.6665 59.6525 92.4454 58.3447C93.8336 57.3222 95.3752 56.6739 97.1296 56.9406C97.8516 57.048 98.4027 57.437 98.7654 58.1113C99.1491 59.0005 98.891 59.8378 98.4271 60.5454C97.6493 61.7309 97.1715 63.0943 96.3309 64.2428C95.8949 64.8356 95.6019 65.5469 94.9427 65.9322C94.8555 65.9841 94.845 66.0989 94.873 66.2027L94.8764 66.2064Z" fill="#C7A32E"/>
<path d="M68.8044 95.9192C68.0789 96.4268 67.2767 96.7602 66.4292 96.8787C64.5248 97.1529 63.0355 95.0078 63.5342 92.8183C64.1027 90.3323 65.5433 88.5355 67.4442 87.0795C68.351 86.383 69.2962 85.768 70.3914 85.453C70.5588 85.4679 70.7263 85.4827 70.8902 85.4567C72.2644 85.2641 73.255 85.9977 73.97 87.0906C74.535 87.9538 74.3711 89.0023 73.9491 89.9025C73.0178 91.892 71.6471 93.5185 70.0217 94.9078C69.6206 95.2523 69.0974 95.4302 68.8044 95.9192Z" fill="#C64329"/>
<path d="M72.8504 79.5216C72.526 80.9517 71.5076 81.8779 70.6077 82.8523C69.4637 84.0934 68.1627 85.1604 66.6176 85.8161C65.5363 86.2755 64.4411 86.5126 63.4819 85.5568C62.5367 84.6121 62.4181 83.4191 62.7146 82.1409C63.1087 80.4478 64.0016 79.0807 65.1596 77.8804C65.4805 77.6655 65.7595 77.8656 66.0281 78.0026C67.7825 78.8807 69.6555 79.1474 71.5669 79.2326C72.0063 79.2512 72.4807 79.1252 72.8469 79.5253L72.8504 79.5216Z" fill="#6FBE45"/>
<path d="M72.8503 79.5215C71.0401 79.4882 69.2508 79.2733 67.4825 78.8287C66.6593 78.6213 65.9827 78.0618 65.1595 77.8766C65.1281 77.8358 65.1002 77.7951 65.0688 77.7543C65.6304 77.1134 66.3489 76.8948 67.1267 77.0652C67.8661 77.2283 68.4905 77.2838 68.8183 76.365C68.9404 76.0205 69.2404 75.9093 69.5822 75.9427C70.5448 76.0427 71.3261 75.6426 72.0551 75.0128C72.798 74.3718 73.67 74.3941 74.5489 74.6126C74.7687 74.6682 74.8873 74.8757 74.9814 75.0869C75.1663 75.4981 75.3651 75.8982 75.7 76.202C76.0836 76.5466 75.6162 77.1023 75.9581 77.4617C75.6162 78.3879 74.9431 78.8917 74.0676 79.1436C73.6595 79.2585 73.2549 79.3919 72.8469 79.5178L72.8503 79.5215Z" fill="#79613D"/>
<path d="M88.253 81.1258C88.1937 81.3666 88.0297 81.537 87.8484 81.6408C86.7392 82.2632 85.7452 83.0783 84.6012 83.6562C84.0291 83.9452 83.6385 84.5898 83.063 84.9677C81.6748 85.8754 80.8063 87.3833 79.5751 88.4762C79.2542 88.7615 78.9089 89.2801 78.4973 88.9134C78.0858 88.5503 78.3369 88.0131 78.5706 87.5389C79.6309 85.379 81.3086 83.797 83.206 82.6152C84.5558 81.7742 85.9649 80.7813 87.681 80.822C87.9181 80.8257 88.1728 80.7961 88.253 81.1332V81.1258Z" fill="#ECDCC6"/>
<path d="M91.3014 83.3857C89.6656 83.2523 88.2913 84.0526 86.945 84.8417C84.5418 86.257 82.5572 88.1946 80.9249 90.5472C80.8272 90.6879 80.6842 90.788 80.5622 90.9102C80.304 90.1359 80.4959 89.5024 80.9354 88.8244C81.9887 87.2017 83.3734 85.9421 84.8174 84.7676C86.4427 83.4487 88.2181 82.4336 90.3945 82.8004C90.7642 82.8633 91.1514 82.9226 91.3014 83.3857Z" fill="#B4A795"/>
<path d="M79.2852 72.6195C79.0619 72.4231 79.184 72.3453 79.3828 72.275C80.8826 71.7563 82.0964 70.7782 83.08 69.5111C83.4916 68.9776 83.8194 68.2997 83.9764 67.6328C84.2345 66.5325 84.8832 65.5951 85.0193 64.454C85.1553 63.3241 84.5658 62.5201 83.4567 62.409C83.209 62.383 82.9265 62.5164 82.7172 62.2682C83.3416 62.1941 83.9415 62.246 84.5344 62.5164C85.6052 63.0092 86.2261 64.2058 85.9575 65.4173C85.6506 66.7992 84.9739 67.9514 84.0601 68.9962C82.944 70.278 81.7197 71.3821 80.2827 72.2416C79.9583 72.4343 79.6165 72.4861 79.2852 72.6195Z" fill="#2686A5"/>
<path d="M94.8764 66.2064C94.6881 66.0249 94.7299 65.8322 94.9078 65.6989C96.0484 64.8393 96.6448 63.5241 97.2482 62.2867C97.6493 61.4642 98.2353 60.7677 98.5527 59.8897C98.7689 59.2895 98.741 58.7115 98.7689 58.1188C99.6723 59.2265 99.456 60.4306 98.9224 61.568C98.0853 63.3537 96.7878 64.7504 95.3124 65.9619C95.1834 66.0656 95.0264 66.1286 94.8799 66.2101L94.8764 66.2064Z" fill="#A38931"/>
<path d="M68.8043 95.9191C68.8775 95.5783 69.0763 95.3597 69.3588 95.1745C70.5622 94.3853 71.6678 93.3739 72.4073 92.1661C73.1851 90.9028 74.3709 89.7024 74.1024 87.913C74.057 87.6018 73.9943 87.3498 73.792 87.1053C72.9549 86.0976 72.0062 85.3789 70.6563 85.5345C70.5691 85.5456 70.4785 85.4826 70.3878 85.453C71.3539 85.3085 72.3026 85.164 73.2199 85.7642C74.7442 86.7608 74.7023 88.5021 74.0989 89.9988C73.1502 92.3514 71.4481 94.0741 69.4391 95.4597C69.2228 95.6079 69.0938 95.8895 68.8008 95.9191H68.8043Z" fill="#9F3C26"/>
<path d="M57.1862 55.9922C57.385 56.5627 57.3606 57.1296 57.1757 57.7001C57.1687 57.2407 57.1618 56.7813 57.1548 56.3219C57.1652 56.2145 57.1757 56.1033 57.1862 55.9959V55.9922Z" fill="#B1762A"/>
<path d="M54.3088 65.4506C53.374 65.9471 52.4114 66.3064 51.351 66.3694C50.4198 66.425 49.8756 65.8915 49.4292 65.1431C50.5907 65.4988 51.6301 64.8615 52.7287 64.6837C52.7636 65.3617 52.0068 65.2505 51.8184 65.7062C52.9938 66.099 57.0258 63.1647 57.3118 61.5791C56.6108 62.0385 56.1225 62.6053 55.6132 63.124C55.2156 63.5278 54.8006 63.9057 54.3576 64.2465C54.1344 64.417 53.8902 64.6392 53.5868 64.3799C53.6112 64.0613 53.7856 63.8575 54.0611 63.7871C54.4797 63.676 54.7831 63.3944 55.0412 63.061C55.9969 61.8273 57.1653 60.7677 57.7967 59.2635C58.5361 57.5037 58.4768 55.6995 58.1106 53.8693C58.0722 53.6729 58.0617 53.4729 58.0373 53.2728C58.5989 53.6026 58.7419 54.1027 58.7837 54.777C58.8395 55.7365 58.85 56.6961 58.9198 57.6482C59.0104 58.8671 59.8859 59.5155 60.7649 60.1008C61.1346 60.3491 61.4276 60.6343 61.7101 60.9937C62.4809 61.9792 63.2657 62.9573 64.2353 63.7353C64.4899 63.939 64.6294 64.2317 64.7864 64.5207C64.9643 64.8467 65.3235 65.3728 65.5293 65.232C66.185 64.7874 66.3455 65.1542 66.5722 65.6766C66.628 65.8063 66.907 65.8285 67.0849 65.8989C67.1128 66.3398 66.8373 66.6954 66.7815 67.1141C66.7396 67.1141 66.6978 67.1141 66.6559 67.1178C66.4257 67.2808 66.1502 67.2178 65.899 67.2919C65.477 67.4142 65.184 67.2104 65.0794 66.7843C64.898 66.0545 64.4411 65.5803 63.9144 65.1098C63.1506 64.4244 62.4425 63.6723 61.7101 62.9461C61.1485 62.3904 60.4893 61.9829 59.9208 61.4346C59.5022 61.0307 58.9791 61.1419 58.5326 61.6457C57.5665 62.7276 56.6387 63.8501 55.526 64.78C55.2784 64.9875 55.0029 65.1172 54.7413 65.2876C54.5983 65.3395 54.4587 65.3913 54.3157 65.4432L54.3088 65.4506Z" fill="#4C463B"/>
<path d="M54.7339 65.2987C55.3582 64.6466 56.1151 64.1576 56.6976 63.45C57.2417 62.7868 57.8311 62.1644 58.3892 61.5161C58.9333 60.8825 59.5611 60.8974 60.1855 61.3975C61.6643 62.5868 62.9444 64.0094 64.3709 65.2579C64.7302 65.5729 65.065 65.947 65.1348 66.4176C65.2429 67.14 65.5603 67.2882 66.1637 67.0807C66.3067 67.0326 66.4881 67.1067 66.6485 67.1215C66.5509 67.792 66.1986 68.3107 65.7835 68.7961C65.2883 68.4441 65.0267 68.8924 64.786 69.1851C64.4058 69.6408 63.9315 69.7927 63.4048 69.8519C63.192 69.8779 62.9583 69.8853 62.8328 69.6408C62.6968 69.3814 62.8816 69.2221 63.0246 69.0517C63.356 68.6553 63.6838 68.2589 64.0082 67.855C64.5279 67.2141 64.4756 66.5065 63.7885 66.0767C62.9967 65.5803 62.334 64.9467 61.7132 64.2428C61.4272 63.9168 61.0574 63.7464 60.6703 63.6093C60.1297 63.4203 59.5995 63.2203 59.1147 62.872C58.6229 62.5201 58.1067 62.6312 57.6672 63.0239C56.9557 63.6537 56.2476 64.2873 55.5675 64.9504C55.3164 65.195 55.0687 65.3246 54.7374 65.2839L54.7339 65.2987Z" fill="#4A423A"/>
<path d="M53.5864 64.3836C54.3538 64.3354 54.8281 63.7056 55.2711 63.2091C55.7454 62.6831 56.3454 62.3089 56.7604 61.7198C56.9209 61.4938 57.2208 61.2197 57.4894 61.4308C57.7475 61.6309 57.4824 61.9569 57.3952 62.1866C57.1476 62.8424 56.6314 63.3018 56.1186 63.6945C55.0653 64.4947 54.0015 65.295 52.8017 65.847C52.7598 65.8655 52.7145 65.8877 52.6691 65.8989C52.268 66.0026 51.7169 66.3249 51.5181 65.8581C51.3472 65.458 51.9401 65.3024 52.2645 65.1394C52.4703 65.0356 52.6203 64.8948 52.7249 64.6874C53.0109 64.5836 53.2969 64.4836 53.5829 64.3799L53.5864 64.3836Z" fill="#5D574E"/>
<path d="M67.0742 95.5746C66.6242 95.5746 66.2754 95.5227 66.1429 95.1967C66.0173 94.8855 66.3138 94.6632 66.4917 94.4298C66.7707 94.063 67.2521 94.1519 67.566 93.8926C68.1798 93.385 68.7728 92.8441 69.3832 92.3329C69.9168 91.8846 70.4644 91.4511 71.012 91.0139C71.305 90.7805 71.4585 90.9435 71.5038 91.251C71.5805 91.7882 71.3817 92.2439 71.0329 92.6181C70.1714 93.5517 69.146 94.2742 68.1729 95.0596C67.831 95.3338 67.3741 95.4412 67.0777 95.5746H67.0742Z" fill="#DA5538"/>
</g>
<defs>
<clipPath id="clip0_272_144">
<rect width="102" height="73" fill="white" transform="translate(15 33)"/>
</clipPath>
</defs>
</svg>
