<svg width="254" height="258" viewBox="0 0 254 258" fill="none" xmlns="http://www.w3.org/2000/svg">
<path d="M0.820465 10.6639C0.820465 5.14109 5.29762 0.66394 10.8205 0.66394H243.796C249.319 0.66394 253.796 5.14109 253.796 10.6639V247.081C253.796 252.604 249.319 257.081 243.796 257.081H10.8205C5.29762 257.081 0.820465 252.604 0.820465 247.081V10.6639Z" fill="#F9F9FF"/>
<path d="M127.555 165.113C115.622 165.113 103.69 165.113 91.7579 165.113C91.175 165.113 90.5846 165.113 89.9992 165.052C87.0119 164.771 85.811 162.738 87.0848 159.99C88.1903 157.617 89.3962 155.305 90.567 152.958C96.0943 141.906 101.622 130.855 107.149 119.806C107.32 119.469 107.498 119.131 107.697 118.809C109.089 116.555 111.35 116.238 113.131 118.182C114.387 119.542 115.45 121.07 116.57 122.544C122.265 130.061 127.96 137.581 133.655 145.104C136.142 148.378 139.275 148.555 142.197 145.612C143.647 144.15 145.064 142.65 146.531 141.201C149.177 138.587 152.179 138.745 154.34 141.792C158.676 147.908 162.904 154.105 167.153 160.282C167.485 160.766 167.739 161.301 167.907 161.865C168.319 163.284 167.736 164.426 166.311 164.804C165.418 165.02 164.501 165.12 163.583 165.101C151.58 165.121 139.571 165.125 127.555 165.113Z" fill="#D4D2E3"/>
<path d="M154.314 104.552C154.311 106.911 153.615 109.216 152.313 111.175C151.012 113.134 149.164 114.658 147.003 115.555C144.843 116.451 142.468 116.68 140.179 116.211C137.89 115.743 135.79 114.598 134.146 112.923C132.501 111.247 131.387 109.117 130.943 106.8C130.499 104.484 130.746 102.087 131.653 99.9133C132.559 97.7392 134.084 95.886 136.035 94.5885C137.986 93.2911 140.274 92.6078 142.609 92.6254C145.719 92.6653 148.689 93.938 150.879 96.1691C153.068 98.4001 154.302 101.411 154.314 104.552Z" fill="#D4D2E3"/>
</svg>
