<svg width="1016" height="239" viewBox="0 0 1016 239" fill="none" xmlns="http://www.w3.org/2000/svg">
<g style="mix-blend-mode:plus-lighter" opacity="0.2">
<path fill-rule="evenodd" clip-rule="evenodd" d="M121.074 202.092L121.074 238.194L84.9721 238.194L84.9721 234.326C84.9721 216.523 99.4038 202.092 117.206 202.092L121.074 202.092Z" fill="#A3A3A3" fill-opacity="0.2"/>
<path fill-rule="evenodd" clip-rule="evenodd" d="M121.074 198.569L121.074 162.467L84.9721 162.467L84.9721 166.335C84.9721 184.138 99.4038 198.569 117.206 198.569L121.074 198.569Z" fill="#A3A3A3" fill-opacity="0.2"/>
<path fill-rule="evenodd" clip-rule="evenodd" d="M84.9722 157.184L84.9722 121.522L121.074 121.522L121.074 125.343C121.074 142.928 106.643 157.184 88.8402 157.184L84.9722 157.184Z" fill="#A3A3A3" fill-opacity="0.2"/>
<path fill-rule="evenodd" clip-rule="evenodd" d="M84.9722 81.0176L84.9722 117.12L121.074 117.12L121.074 113.252C121.074 95.4492 106.643 81.0176 88.8402 81.0176L84.9722 81.0176Z" fill="#A3A3A3" fill-opacity="0.2"/>
<path fill-rule="evenodd" clip-rule="evenodd" d="M162.899 81.0176L162.899 117.12L126.797 117.12L126.797 113.252C126.797 95.4492 141.229 81.0176 159.031 81.0176L162.899 81.0176Z" fill="#A3A3A3" fill-opacity="0.2"/>
<path fill-rule="evenodd" clip-rule="evenodd" d="M126.798 156.744L126.798 120.642L162.9 120.642L162.9 124.51C162.9 142.312 148.468 156.744 130.666 156.744L126.798 156.744Z" fill="#A3A3A3" fill-opacity="0.2"/>
<path fill-rule="evenodd" clip-rule="evenodd" d="M126.798 197.689L126.798 162.027L162.9 162.027L162.9 165.848C162.9 183.433 148.468 197.689 130.666 197.689L126.798 197.689Z" fill="#A3A3A3" fill-opacity="0.2"/>
<path d="M126.798 235.694L128.603 235.694L128.603 236.388L129.298 236.388L129.298 238.194L132.213 238.194L132.213 235.694L135.823 235.694L135.823 238.194L139.434 238.194L139.434 235.694L143.044 235.694L143.044 238.194L146.654 238.194L146.654 235.694L150.265 235.694L150.265 238.194L153.874 238.194L153.874 235.694L157.484 235.694L157.484 238.194L160.4 238.194L160.4 237.226L161.095 237.226L161.095 235.694L162.9 235.694L162.9 235.293L160.4 235.293L160.4 234.326C160.4 233.671 160.379 233.021 160.337 232.377L162.829 232.216C162.737 230.795 162.554 229.4 162.284 228.035L159.834 228.52C159.58 227.237 159.243 225.983 158.83 224.764L161.196 223.961C160.741 222.621 160.2 221.321 159.58 220.066L157.341 221.174C156.764 220.006 156.113 218.881 155.394 217.806L157.469 216.417C156.685 215.246 155.826 214.129 154.899 213.073L153.022 214.721C152.166 213.746 151.246 212.826 150.271 211.97L151.918 210.092C150.862 209.165 149.746 208.305 148.574 207.521L147.185 209.598C146.11 208.879 144.986 208.227 143.818 207.65L144.924 205.411C143.67 204.791 142.371 204.248 141.031 203.794L140.228 206.162C139.009 205.748 137.755 205.412 136.472 205.158L136.956 202.707C135.591 202.437 134.196 202.254 132.775 202.162L132.615 204.654C132.132 204.623 131.646 204.603 131.156 204.596L130.666 204.592L129.699 204.592L129.699 202.092L129.298 202.092L129.298 203.896L127.765 203.896L127.765 204.592L126.798 204.592L126.798 207.507L129.298 207.507L129.298 211.117L126.798 211.117L126.798 214.727L129.298 214.727L129.298 218.338L126.798 218.338L126.798 221.948L129.298 221.948L129.298 225.558L126.798 225.558L126.798 229.168L129.298 229.168L129.298 232.778L126.798 232.778L126.798 235.694Z" stroke="#A3A3A3" stroke-opacity="0.3" stroke-width="5" stroke-dasharray="4 4"/>
<path d="M36.102 154.685L34.2974 154.685L34.2974 155.379L33.602 155.379L33.602 157.185L30.687 157.185L30.687 154.685L27.0767 154.685L27.0767 157.185L23.4663 157.185L23.4663 154.685L19.856 154.685L19.856 157.185L16.2456 157.185L16.2456 154.685L12.6353 154.685L12.6353 157.185L9.02588 157.185L9.02588 154.685L5.41553 154.685L5.41553 157.185L2.49951 157.185L2.49951 156.217L1.80517 156.217L1.80517 154.685L-0.00048975 154.685L-0.000489733 154.283L2.49951 154.283L2.49951 153.316C2.49951 152.661 2.52138 152.011 2.56299 151.367L0.0707995 151.206C0.162604 149.785 0.345747 148.39 0.615722 147.025L3.06592 147.511C3.31986 146.227 3.65644 144.973 4.06982 143.755L1.70361 142.951C2.15844 141.611 2.70001 140.311 3.31982 139.057L5.55908 140.164C6.13581 138.997 6.78667 137.872 7.50635 136.797L5.43115 135.407C6.21523 134.236 7.07379 133.119 8.00049 132.064L9.87744 133.712C10.7339 132.736 11.6535 131.816 12.6294 130.96L10.9819 129.082C12.0379 128.155 13.1544 127.296 14.3257 126.512L15.7153 128.589C16.7903 127.869 17.9143 127.217 19.0815 126.641L17.9761 124.401C19.2301 123.782 20.529 123.239 21.8687 122.784L22.6724 125.152C23.8906 124.739 25.1445 124.402 26.4282 124.148L25.9438 121.697C27.3085 121.427 28.7039 121.244 30.1245 121.152L30.2847 123.645C30.7677 123.613 31.2543 123.594 31.7437 123.586L32.2339 123.582L33.2007 123.582L33.2007 121.082L33.6021 121.082L33.6021 122.887L35.1353 122.887L35.1353 123.582L36.1021 123.582L36.1021 126.497L33.6021 126.497L33.6021 130.107L36.1021 130.107L36.1021 133.718L33.6021 133.718L33.6021 137.328L36.1021 137.328L36.102 140.939L33.602 140.939L33.602 144.549L36.102 144.549L36.102 148.158L33.602 148.158L33.602 151.769L36.102 151.769L36.102 154.685Z" stroke="#A3A3A3" stroke-opacity="0.3" stroke-width="5" stroke-dasharray="4 4"/>
<path fill-rule="evenodd" clip-rule="evenodd" d="M36.1021 117.56L36.1021 81.4579L-2.13101e-05 81.4579L-2.14792e-05 85.326C-2.22574e-05 103.128 14.4316 117.56 32.234 117.56L36.1021 117.56Z" fill="#A3A3A3" fill-opacity="0.2"/>
<path fill-rule="evenodd" clip-rule="evenodd" d="M0 76.1747L1.55883e-06 40.5128L36.1021 40.5128L36.1021 44.3338C36.1021 61.919 21.6704 76.1747 3.86808 76.1747L0 76.1747Z" fill="#A3A3A3" fill-opacity="0.2"/>
<path fill-rule="evenodd" clip-rule="evenodd" d="M0 0.00808716L-1.57807e-06 36.1102L36.1021 36.1102L36.1021 32.2421C36.1021 14.4397 21.6704 0.00808811 3.86808 0.00808733L0 0.00808716Z" fill="#A3A3A3" fill-opacity="0.2"/>
<path d="M77.9277 34.3049L76.9277 34.3049L76.9277 35.1106L76.123 35.1106L76.123 36.1106L72.5127 36.1106L72.5127 35.1106L68.9023 35.1106L68.9023 36.1106L65.292 36.1106L65.292 35.1106L61.6816 35.1106L61.6816 36.1106L58.0713 36.1106L58.0713 35.1106L54.4609 35.1106L54.4609 36.1106L50.8516 36.1106L50.8516 35.1106L47.2412 35.1106L47.2412 36.1106L43.6309 36.1106L43.6309 35.1106L41.8252 35.1106L41.8252 33.2092L42.8252 33.2092L42.8252 32.2424C42.8252 31.555 42.8479 30.8726 42.8916 30.1965L41.8965 30.1321C41.9883 28.7114 42.1714 27.316 42.4414 25.9514L43.4199 26.1458C43.6868 24.7968 44.0411 23.4788 44.4756 22.1985L43.5293 21.8772C43.9841 20.537 44.5257 19.2371 45.1455 17.9827L46.04 18.425C46.6459 17.1988 47.3301 16.0179 48.0859 14.8889L47.2568 14.3333C48.0409 13.1621 48.8995 12.0453 49.8262 10.9895L50.5762 11.6477C51.4756 10.623 52.4411 9.65742 53.4658 8.75806L52.8076 8.00806C53.8636 7.08126 54.98 6.22188 56.1514 5.43774L56.7061 6.2688C57.8351 5.51289 59.0167 4.82788 60.2432 4.22192L59.8018 3.32739C61.0558 2.70786 62.3547 2.16487 63.6943 1.7102L64.0156 2.65747C65.2959 2.22296 66.6139 1.86965 67.9629 1.60278L67.7695 0.623291C69.1341 0.353345 70.5295 0.170149 71.9502 0.0783689L72.0137 1.07349C72.5207 1.04072 73.0314 1.02025 73.5449 1.01196L74.0596 1.00806L75.0264 1.00806L75.0264 0.00805651L76.9277 0.0080566L76.9277 1.81274L77.9277 1.81274L77.9277 5.4231L76.9277 5.4231L76.9277 9.03345L77.9277 9.03345L77.9277 12.6438L76.9277 12.6438L76.9277 16.2542L77.9277 16.2542L77.9277 19.8645L76.9277 19.8645L76.9277 23.4749L77.9277 23.4749L77.9277 27.0842L76.9277 27.0842L76.9277 30.6946L77.9277 30.6946L77.9277 34.3049Z" stroke="#A3A3A3" stroke-opacity="0.3" stroke-width="2" stroke-dasharray="4 4"/>
<path fill-rule="evenodd" clip-rule="evenodd" d="M41.8257 75.7343L41.8257 39.6323L77.9278 39.6323L77.9278 43.5004C77.9278 61.3027 63.4961 75.7343 45.6938 75.7343L41.8257 75.7343Z" fill="#A3A3A3" fill-opacity="0.2"/>
<path d="M1.46881e-06 203.711L1.80469 203.711L1.80469 203.016L2.5 203.016L2.5 201.211L5.41504 201.211L5.41504 203.711L9.02539 203.711L9.02539 201.211L12.6357 201.211L12.6357 203.711L16.2461 203.711L16.2461 201.211L19.8564 201.211L19.8564 203.711L23.4668 203.711L23.4668 201.211L27.0762 201.211L27.0762 203.711L30.6865 203.711L30.6865 201.211L33.6025 201.211L33.6025 202.178L34.2969 202.178L34.2969 203.711L36.1025 203.711L36.1025 204.112L33.6025 204.112L33.6025 205.079C33.6025 205.734 33.5807 206.384 33.5391 207.028L36.0313 207.189C35.9394 208.61 35.7563 210.005 35.4863 211.37L33.0361 210.884C32.7822 212.168 32.4456 213.422 32.0322 214.64L34.3984 215.444C33.9436 216.784 33.402 218.084 32.7822 219.339L30.543 218.231C29.9662 219.398 29.3154 220.523 28.5957 221.598L30.6709 222.988C29.8868 224.159 29.0283 225.276 28.1016 226.332L26.2246 224.683C25.3681 225.659 24.4485 226.579 23.4727 227.435L25.1201 229.313C24.0641 230.24 22.9477 231.099 21.7764 231.883L20.3867 229.806C19.3118 230.526 18.1877 231.178 17.0205 231.755L18.126 233.994C16.872 234.613 15.5731 235.156 14.2334 235.611L13.4297 233.243C12.2114 233.656 10.9576 233.993 9.67383 234.247L10.1582 236.698C8.79359 236.968 7.39819 237.151 5.97754 237.243L5.81738 234.751C5.33439 234.782 4.84778 234.801 4.3584 234.809L3.86816 234.813L2.90137 234.813L2.90137 237.313L2.5 237.313L2.5 235.508L0.966797 235.508L0.966797 234.813L1.09278e-07 234.813L2.36699e-07 231.898L2.5 231.898L2.5 228.288L3.94512e-07 228.288L5.52326e-07 224.677L2.5 224.677L2.5 221.067L7.10139e-07 221.067L8.67953e-07 217.457L2.5 217.457L2.5 213.846L1.02577e-06 213.846L1.18354e-06 210.237L2.5 210.237L2.5 206.627L1.34135e-06 206.627L1.46881e-06 203.711Z" stroke="#A3A3A3" stroke-opacity="0.3" stroke-width="5" stroke-dasharray="4 4"/>
<path fill-rule="evenodd" clip-rule="evenodd" d="M0 161.147L-1.55883e-06 196.808L36.1021 196.808L36.1021 192.988C36.1021 175.402 21.6704 161.147 3.86808 161.147L0 161.147Z" fill="#A3A3A3" fill-opacity="0.2"/>
<path fill-rule="evenodd" clip-rule="evenodd" d="M77.9277 161.147L77.9277 196.808L41.8257 196.808L41.8257 192.988C41.8257 175.402 56.2573 161.147 74.0597 161.147L77.9277 161.147Z" fill="#A3A3A3" fill-opacity="0.2"/>
<path fill-rule="evenodd" clip-rule="evenodd" d="M41.8257 236.433L41.8257 200.771L77.9278 200.771L77.9278 204.592C77.9278 222.177 63.4961 236.433 45.6938 236.433L41.8257 236.433Z" fill="#A3A3A3" fill-opacity="0.2"/>
<path d="M41.8257 83.5173L43.6304 83.5173L43.6304 83.2468L44.3257 83.2468L44.3257 81.0173L47.2407 81.0173L47.2407 83.5173L50.8511 83.5173L50.8511 81.0173L54.4614 81.0173L54.4614 83.5173L58.0718 83.5173L58.0718 81.0173L61.6821 81.0173L61.6821 83.5173L65.2925 83.5173L65.2925 81.0173L68.9019 81.0173L68.9019 83.5173L72.5122 83.5173L72.5122 81.0173L75.4282 81.0173L75.4282 81.9724L76.1226 81.9724L76.1226 83.5173L77.9282 83.5173L77.9282 83.8835L75.4282 83.8835L75.4282 84.8386C75.4282 85.4883 75.4068 86.1327 75.3647 86.7712L77.856 86.9363C77.763 88.3478 77.5783 89.7341 77.3052 91.0896L74.856 90.5954C74.5996 91.8675 74.2595 93.1102 73.8423 94.3171L76.2036 95.1335C75.7443 96.4622 75.1984 97.7509 74.5728 98.9939L72.3423 97.8708C71.7619 99.024 71.1063 100.134 70.3823 101.196L72.4468 102.605C71.6581 103.762 70.7933 104.863 69.8618 105.905L68.0005 104.239C67.1417 105.2 66.2199 106.105 65.2417 106.948L66.8726 108.842C65.8158 109.752 64.6982 110.595 63.5269 111.365L62.1548 109.277C61.081 109.983 59.9581 110.622 58.7925 111.187L59.8823 113.435C58.632 114.042 57.3365 114.572 56.0015 115.016L55.2124 112.644C53.9989 113.049 52.7497 113.378 51.4712 113.627L51.9468 116.079C50.5899 116.342 49.2027 116.521 47.7905 116.611L47.6333 114.118C47.1526 114.148 46.6682 114.168 46.1812 114.176L45.6938 114.179L44.7271 114.179L44.7271 116.679L44.3257 116.679L44.3257 114.451L42.7925 114.451L42.7925 114.179L41.8257 114.179L41.8257 109.993L44.3257 109.993L44.3257 105.535L41.8257 105.535L41.8257 101.078L44.3257 101.078L44.3257 96.6198L41.8257 96.6198L41.8257 92.1618L44.3257 92.1618L44.3257 87.7038L41.8257 87.7038L41.8257 83.5173Z" stroke="#A3A3A3" stroke-opacity="0.3" stroke-width="5" stroke-dasharray="4 4"/>
<path fill-rule="evenodd" clip-rule="evenodd" d="M41.8257 121.082L41.8257 157.184L77.9278 157.184L77.9278 153.316C77.9278 135.514 63.4961 121.082 45.6938 121.082L41.8257 121.082Z" fill="#A3A3A3" fill-opacity="0.2"/>
</g>
<g style="mix-blend-mode:plus-lighter" opacity="0.2">
<path fill-rule="evenodd" clip-rule="evenodd" d="M894.424 202.092L894.424 238.194L930.526 238.194L930.526 234.326C930.526 216.523 916.094 202.092 898.292 202.092L894.424 202.092Z" fill="#A3A3A3" fill-opacity="0.2"/>
<path fill-rule="evenodd" clip-rule="evenodd" d="M894.424 198.569L894.424 162.467L930.526 162.467L930.526 166.335C930.526 184.138 916.094 198.569 898.292 198.569L894.424 198.569Z" fill="#A3A3A3" fill-opacity="0.2"/>
<path fill-rule="evenodd" clip-rule="evenodd" d="M930.526 157.184L930.526 121.522L894.424 121.522L894.424 125.343C894.424 142.928 908.855 157.184 926.658 157.184L930.526 157.184Z" fill="#A3A3A3" fill-opacity="0.2"/>
<path fill-rule="evenodd" clip-rule="evenodd" d="M930.526 81.0176L930.526 117.12L894.424 117.12L894.424 113.252C894.424 95.4492 908.855 81.0176 926.658 81.0176L930.526 81.0176Z" fill="#A3A3A3" fill-opacity="0.2"/>
<path fill-rule="evenodd" clip-rule="evenodd" d="M852.599 81.0176L852.599 117.12L888.701 117.12L888.701 113.252C888.701 95.4492 874.269 81.0176 856.467 81.0176L852.599 81.0176Z" fill="#A3A3A3" fill-opacity="0.2"/>
<path fill-rule="evenodd" clip-rule="evenodd" d="M888.7 156.744L888.7 120.642L852.598 120.642L852.598 124.51C852.598 142.312 867.03 156.744 884.832 156.744L888.7 156.744Z" fill="#A3A3A3" fill-opacity="0.2"/>
<path fill-rule="evenodd" clip-rule="evenodd" d="M888.7 197.689L888.7 162.027L852.598 162.027L852.598 165.848C852.598 183.433 867.03 197.689 884.832 197.689L888.7 197.689Z" fill="#A3A3A3" fill-opacity="0.2"/>
<path d="M888.7 235.694L886.896 235.694L886.896 236.388L886.2 236.388L886.2 238.194L883.285 238.194L883.285 235.694L879.675 235.694L879.675 238.194L876.064 238.194L876.064 235.694L872.454 235.694L872.454 238.194L868.844 238.194L868.844 235.694L865.233 235.694L865.233 238.194L861.624 238.194L861.624 235.694L858.014 235.694L858.014 238.194L855.098 238.194L855.098 237.226L854.403 237.226L854.403 235.694L852.598 235.694L852.598 235.293L855.098 235.293L855.098 234.326C855.098 233.671 855.12 233.021 855.161 232.377L852.669 232.216C852.761 230.795 852.944 229.4 853.214 228.035L855.664 228.52C855.918 227.237 856.255 225.983 856.668 224.764L854.302 223.961C854.757 222.621 855.298 221.321 855.918 220.066L858.157 221.174C858.734 220.006 859.385 218.881 860.104 217.806L858.029 216.417C858.813 215.246 859.672 214.129 860.599 213.073L862.476 214.721C863.332 213.746 864.252 212.826 865.228 211.97L863.58 210.092C864.636 209.165 865.752 208.305 866.924 207.521L868.313 209.598C869.388 208.879 870.512 208.227 871.68 207.65L870.574 205.411C871.828 204.791 873.127 204.248 874.467 203.794L875.271 206.162C876.489 205.748 877.743 205.412 879.026 205.158L878.542 202.707C879.907 202.437 881.302 202.254 882.723 202.162L882.883 204.654C883.366 204.623 883.852 204.603 884.342 204.596L884.832 204.592L885.799 204.592L885.799 202.092L886.2 202.092L886.2 203.896L887.733 203.896L887.733 204.592L888.7 204.592L888.7 207.507L886.2 207.507L886.2 211.117L888.7 211.117L888.7 214.727L886.2 214.727L886.2 218.338L888.7 218.338L888.7 221.948L886.2 221.948L886.2 225.558L888.7 225.558L888.7 229.168L886.2 229.168L886.2 232.778L888.7 232.778L888.7 235.694Z" stroke="#A3A3A3" stroke-opacity="0.3" stroke-width="5" stroke-dasharray="4 4"/>
<path d="M979.396 154.685L981.201 154.685L981.201 155.379L981.896 155.379L981.896 157.185L984.811 157.185L984.811 154.685L988.421 154.685L988.421 157.185L992.032 157.185L992.032 154.685L995.642 154.685L995.642 157.185L999.252 157.185L999.252 154.685L1002.86 154.685L1002.86 157.185L1006.47 157.185L1006.47 154.685L1010.08 154.685L1010.08 157.185L1013 157.185L1013 156.217L1013.69 156.217L1013.69 154.685L1015.5 154.685L1015.5 154.283L1013 154.283L1013 153.316C1013 152.661 1012.98 152.011 1012.94 151.367L1015.43 151.206C1015.34 149.785 1015.15 148.39 1014.88 147.025L1012.43 147.511C1012.18 146.227 1011.84 144.973 1011.43 143.755L1013.79 142.951C1013.34 141.611 1012.8 140.311 1012.18 139.057L1009.94 140.164C1009.36 138.997 1008.71 137.872 1007.99 136.797L1010.07 135.407C1009.28 134.236 1008.42 133.119 1007.5 132.064L1005.62 133.712C1004.76 132.736 1003.84 131.816 1002.87 130.96L1004.52 129.082C1003.46 128.155 1002.34 127.296 1001.17 126.512L999.783 128.589C998.708 127.869 997.584 127.217 996.417 126.641L997.522 124.401C996.268 123.782 994.969 123.239 993.629 122.784L992.826 125.152C991.607 124.739 990.354 124.402 989.07 124.148L989.554 121.697C988.19 121.427 986.794 121.244 985.374 121.152L985.213 123.645C984.73 123.613 984.244 123.594 983.754 123.586L983.264 123.582L982.297 123.582L982.297 121.082L981.896 121.082L981.896 122.887L980.363 122.887L980.363 123.582L979.396 123.582L979.396 126.497L981.896 126.497L981.896 130.107L979.396 130.107L979.396 133.718L981.896 133.718L981.896 137.328L979.396 137.328L979.396 140.939L981.896 140.939L981.896 144.549L979.396 144.549L979.396 148.158L981.896 148.158L981.896 151.769L979.396 151.769L979.396 154.685Z" stroke="#A3A3A3" stroke-opacity="0.3" stroke-width="5" stroke-dasharray="4 4"/>
<path fill-rule="evenodd" clip-rule="evenodd" d="M979.396 117.56L979.396 81.4579L1015.5 81.4579L1015.5 85.326C1015.5 103.128 1001.07 117.56 983.264 117.56L979.396 117.56Z" fill="#A3A3A3" fill-opacity="0.2"/>
<path fill-rule="evenodd" clip-rule="evenodd" d="M1015.5 76.1747L1015.5 40.5128L979.396 40.5128L979.396 44.3338C979.396 61.919 993.828 76.1747 1011.63 76.1747L1015.5 76.1747Z" fill="#A3A3A3" fill-opacity="0.2"/>
<path fill-rule="evenodd" clip-rule="evenodd" d="M1015.5 0.00808716L1015.5 36.1102L979.396 36.1102L979.396 32.2421C979.396 14.4397 993.828 0.00808811 1011.63 0.00808733L1015.5 0.00808716Z" fill="#A3A3A3" fill-opacity="0.2"/>
<path d="M937.57 34.3049L938.57 34.3049L938.57 35.1106L939.375 35.1106L939.375 36.1106L942.985 36.1106L942.985 35.1106L946.596 35.1106L946.596 36.1106L950.206 36.1106L950.206 35.1106L953.816 35.1106L953.816 36.1106L957.427 36.1106L957.427 35.1106L961.037 35.1106L961.037 36.1106L964.646 36.1106L964.646 35.1106L968.257 35.1106L968.257 36.1106L971.867 36.1106L971.867 35.1106L973.673 35.1106L973.673 33.2092L972.673 33.2092L972.673 32.2424C972.673 31.555 972.65 30.8726 972.606 30.1965L973.602 30.1321C973.51 28.7114 973.327 27.316 973.057 25.9514L972.078 26.1458C971.811 24.7968 971.457 23.4788 971.022 22.1985L971.969 21.8772C971.514 20.537 970.972 19.2371 970.353 17.9827L969.458 18.425C968.852 17.1988 968.168 16.0179 967.412 14.8889L968.241 14.3333C967.457 13.1621 966.599 12.0453 965.672 10.9895L964.922 11.6477C964.022 10.623 963.057 9.65742 962.032 8.75806L962.69 8.00806C961.634 7.08126 960.518 6.22188 959.347 5.43774L958.792 6.2688C957.663 5.51289 956.481 4.82788 955.255 4.22192L955.696 3.32739C954.442 2.70786 953.143 2.16487 951.804 1.7102L951.482 2.65747C950.202 2.22296 948.884 1.86965 947.535 1.60278L947.729 0.623291C946.364 0.353345 944.969 0.170149 943.548 0.0783689L943.484 1.07349C942.977 1.04072 942.467 1.02025 941.953 1.01196L941.438 1.00806L940.472 1.00806L940.472 0.00805651L938.57 0.0080566L938.57 1.81274L937.57 1.81274L937.57 5.4231L938.57 5.4231L938.57 9.03345L937.57 9.03345L937.57 12.6438L938.57 12.6438L938.57 16.2542L937.57 16.2542L937.57 19.8645L938.57 19.8645L938.57 23.4749L937.57 23.4749L937.57 27.0842L938.57 27.0842L938.57 30.6946L937.57 30.6946L937.57 34.3049Z" stroke="#A3A3A3" stroke-opacity="0.3" stroke-width="2" stroke-dasharray="4 4"/>
<path fill-rule="evenodd" clip-rule="evenodd" d="M973.672 75.7343L973.672 39.6323L937.57 39.6323L937.57 43.5004C937.57 61.3027 952.002 75.7343 969.804 75.7343L973.672 75.7343Z" fill="#A3A3A3" fill-opacity="0.2"/>
<path d="M1015.5 203.711L1013.69 203.711L1013.69 203.016L1013 203.016L1013 201.211L1010.08 201.211L1010.08 203.711L1006.47 203.711L1006.47 201.211L1002.86 201.211L1002.86 203.711L999.252 203.711L999.252 201.211L995.642 201.211L995.642 203.711L992.031 203.711L992.031 201.211L988.422 201.211L988.422 203.711L984.812 203.711L984.812 201.211L981.896 201.211L981.896 202.178L981.201 202.178L981.201 203.711L979.396 203.711L979.396 204.112L981.896 204.112L981.896 205.079C981.896 205.734 981.917 206.384 981.959 207.028L979.467 207.189C979.559 208.61 979.742 210.005 980.012 211.37L982.462 210.884C982.716 212.168 983.052 213.422 983.466 214.64L981.1 215.444C981.554 216.784 982.096 218.084 982.716 219.339L984.955 218.231C985.532 219.398 986.183 220.523 986.902 221.598L984.827 222.988C985.611 224.159 986.47 225.276 987.396 226.332L989.273 224.683C990.13 225.659 991.05 226.579 992.025 227.435L990.378 229.313C991.434 230.24 992.55 231.099 993.722 231.883L995.111 229.806C996.186 230.526 997.31 231.178 998.478 231.755L997.372 233.994C998.626 234.613 999.925 235.156 1001.26 235.611L1002.07 233.243C1003.29 233.656 1004.54 233.993 1005.82 234.247L1005.34 236.698C1006.7 236.968 1008.1 237.151 1009.52 237.243L1009.68 234.751C1010.16 234.782 1010.65 234.801 1011.14 234.809L1011.63 234.813L1012.6 234.813L1012.6 237.313L1013 237.313L1013 235.508L1014.53 235.508L1014.53 234.813L1015.5 234.813L1015.5 231.898L1013 231.898L1013 228.288L1015.5 228.288L1015.5 224.677L1013 224.677L1013 221.067L1015.5 221.067L1015.5 217.457L1013 217.457L1013 213.846L1015.5 213.846L1015.5 210.237L1013 210.237L1013 206.627L1015.5 206.627L1015.5 203.711Z" stroke="#A3A3A3" stroke-opacity="0.3" stroke-width="5" stroke-dasharray="4 4"/>
<path fill-rule="evenodd" clip-rule="evenodd" d="M1015.5 161.147L1015.5 196.808L979.396 196.808L979.396 192.988C979.396 175.402 993.828 161.147 1011.63 161.147L1015.5 161.147Z" fill="#A3A3A3" fill-opacity="0.2"/>
<path fill-rule="evenodd" clip-rule="evenodd" d="M937.57 161.147L937.57 196.808L973.672 196.808L973.672 192.988C973.672 175.402 959.241 161.147 941.438 161.147L937.57 161.147Z" fill="#A3A3A3" fill-opacity="0.2"/>
<path fill-rule="evenodd" clip-rule="evenodd" d="M973.672 236.433L973.672 200.771L937.57 200.771L937.57 204.592C937.57 222.177 952.002 236.433 969.804 236.433L973.672 236.433Z" fill="#A3A3A3" fill-opacity="0.2"/>
<path d="M973.672 83.5173L971.868 83.5173L971.868 83.2468L971.172 83.2468L971.172 81.0173L968.257 81.0173L968.257 83.5173L964.647 83.5173L964.647 81.0173L961.037 81.0173L961.037 83.5173L957.426 83.5173L957.426 81.0173L953.816 81.0173L953.816 83.5173L950.206 83.5173L950.206 81.0173L946.596 81.0173L946.596 83.5173L942.986 83.5173L942.986 81.0173L940.07 81.0173L940.07 81.9724L939.375 81.9724L939.375 83.5173L937.57 83.5173L937.57 83.8835L940.07 83.8835L940.07 84.8386C940.07 85.4883 940.091 86.1327 940.133 86.7712L937.642 86.9363C937.735 88.3478 937.92 89.7341 938.193 91.0896L940.642 90.5954C940.898 91.8675 941.239 93.1102 941.656 94.3171L939.294 95.1335C939.754 96.4622 940.3 97.7509 940.925 98.9939L943.156 97.8708C943.736 99.024 944.392 100.134 945.116 101.196L943.051 102.605C943.84 103.762 944.705 104.863 945.636 105.905L947.498 104.239C948.356 105.2 949.278 106.105 950.256 106.948L948.625 108.842C949.682 109.752 950.8 110.595 951.971 111.365L953.343 109.277C954.417 109.983 955.54 110.622 956.706 111.187L955.616 113.435C956.866 114.042 958.162 114.572 959.497 115.016L960.286 112.644C961.499 113.049 962.748 113.378 964.027 113.627L963.551 116.079C964.908 116.342 966.295 116.521 967.708 116.611L967.865 114.118C968.345 114.148 968.83 114.168 969.317 114.176L969.804 114.179L970.771 114.179L970.771 116.679L971.172 116.679L971.172 114.451L972.706 114.451L972.706 114.179L973.672 114.179L973.672 109.993L971.172 109.993L971.172 105.535L973.672 105.535L973.672 101.078L971.172 101.078L971.172 96.6198L973.672 96.6198L973.672 92.1618L971.172 92.1618L971.172 87.7038L973.672 87.7038L973.672 83.5173Z" stroke="#A3A3A3" stroke-opacity="0.3" stroke-width="5" stroke-dasharray="4 4"/>
<path fill-rule="evenodd" clip-rule="evenodd" d="M973.672 121.082L973.672 157.184L937.57 157.184L937.57 153.316C937.57 135.514 952.002 121.082 969.804 121.082L973.672 121.082Z" fill="#A3A3A3" fill-opacity="0.2"/>
</g>
<g style="mix-blend-mode:plus-lighter" opacity="0.2">
<path fill-rule="evenodd" clip-rule="evenodd" d="M295.62 131.382H334.498V92.5047H330.332C311.161 92.5047 295.62 108.046 295.62 127.217V131.382Z" fill="#A3A3A3" fill-opacity="0.2"/>
<path fill-rule="evenodd" clip-rule="evenodd" d="M291.827 131.382H252.95V92.5047H257.115C276.286 92.5047 291.827 108.046 291.827 127.217V131.382Z" fill="#A3A3A3" fill-opacity="0.2"/>
<path fill-rule="evenodd" clip-rule="evenodd" d="M247.26 92.5047H208.857V131.382H212.971C231.909 131.382 247.26 115.841 247.26 96.6701V92.5047Z" fill="#A3A3A3" fill-opacity="0.2"/>
<path fill-rule="evenodd" clip-rule="evenodd" d="M165.238 92.5047H204.115V131.382H199.95C180.779 131.382 165.238 115.841 165.238 96.6701V92.5047Z" fill="#A3A3A3" fill-opacity="0.2"/>
<path fill-rule="evenodd" clip-rule="evenodd" d="M165.238 176.423H204.115V137.546H199.95C180.779 137.546 165.238 153.087 165.238 172.258V176.423Z" fill="#A3A3A3" fill-opacity="0.2"/>
<path fill-rule="evenodd" clip-rule="evenodd" d="M246.786 137.546H207.909V176.423H212.074C231.245 176.423 246.786 160.882 246.786 141.711V137.546Z" fill="#A3A3A3" fill-opacity="0.2"/>
<path fill-rule="evenodd" clip-rule="evenodd" d="M290.879 137.546H252.475V176.423H256.59C275.527 176.423 290.879 160.882 290.879 141.711V137.546Z" fill="#A3A3A3" fill-opacity="0.2"/>
<path d="M331.998 137.546V139.49H332.554V140.046H334.498V143.378H331.998V147.266H334.498V151.153H331.998V155.041H334.498V158.929H331.998V162.816H334.498V166.704H331.998V170.592H334.498V173.924H333.456V174.479H331.998V176.424H331.374V173.924H330.332C329.725 173.924 329.121 173.907 328.522 173.874L328.385 176.367C327.074 176.295 325.783 176.148 324.515 175.934L324.931 173.473C323.733 173.27 322.558 173.003 321.41 172.673L320.719 175.073C319.463 174.712 318.238 174.282 317.045 173.787L318.003 171.48C316.886 171.017 315.8 170.492 314.75 169.911L313.538 172.096C312.399 171.465 311.299 170.774 310.243 170.023L311.692 167.986C310.709 167.287 309.766 166.534 308.868 165.731L307.203 167.593C306.235 166.727 305.316 165.808 304.45 164.84L306.312 163.175C305.51 162.277 304.757 161.335 304.058 160.351L302.02 161.799C301.269 160.743 300.578 159.642 299.947 158.503L302.133 157.294C301.551 156.244 301.027 155.158 300.563 154.041L298.256 154.998C297.761 153.805 297.33 152.58 296.969 151.324L299.371 150.634C299.041 149.485 298.772 148.31 298.57 147.112L296.107 147.527C295.894 146.259 295.747 144.969 295.675 143.658L298.17 143.52C298.153 143.221 298.141 142.921 298.133 142.619L298.12 141.711V140.67H295.62V140.046H297.564V138.587H298.12V137.546H301.452V140.046H305.34V137.546H309.228V140.046H313.115V137.546H317.003V140.046H320.891V137.546H324.778V140.046H328.666V137.546H331.998Z" stroke="#A3A3A3" stroke-opacity="0.3" stroke-width="5" stroke-dasharray="4 4"/>
<path d="M244.76 39.8777V37.9334H245.316V37.3777H247.26V34.0457H244.76V30.158H247.26V26.2703H244.76V22.3826H247.26V18.4949H244.76V14.6072H247.26V10.7195H244.76V6.83182H247.26V3.49979H246.218V2.94412H244.76V0.999786H244.136V3.49979H243.094C242.487 3.49979 241.883 3.51649 241.285 3.54959L241.147 1.05643C239.836 1.12893 238.545 1.27504 237.277 1.48904L237.693 3.95096C236.495 4.15301 235.321 4.42053 234.172 4.75076L233.481 2.35037C232.226 2.71146 231 3.1419 229.807 3.63651L230.765 5.94315C229.648 6.40639 228.562 6.93104 227.512 7.51248L226.3 5.32791C225.162 5.95864 224.061 6.64973 223.005 7.40018L224.455 9.43729C223.471 10.1364 222.528 10.8895 221.63 11.6922L219.965 9.83084C218.997 10.6966 218.078 11.6156 217.212 12.5838L219.075 14.2488C218.272 15.1463 217.519 16.0886 216.82 17.0721L214.782 15.6248C214.031 16.6808 213.34 17.7817 212.709 18.9207L214.895 20.1297C214.314 21.1796 213.789 22.2654 213.326 23.3826L211.018 22.4256C210.523 23.6183 210.092 24.8439 209.731 26.0994L212.133 26.7898C211.803 27.9383 211.535 29.1137 211.333 30.3113L208.87 29.8963C208.656 31.1641 208.509 32.4549 208.437 33.7654L210.932 33.9031C210.916 34.2024 210.903 34.5029 210.895 34.8045L210.882 35.7127V36.7537H208.382V37.3777H210.327V38.8367H210.882V39.8777H214.214V37.3777H218.102V39.8777H221.99V37.3777H225.877V39.8777H229.765V37.3777H233.653V39.8777L237.541 39.8777V37.3777L241.428 37.3777V39.8777H244.76Z" stroke="#A3A3A3" stroke-opacity="0.3" stroke-width="5" stroke-dasharray="4 4"/>
<path fill-rule="evenodd" clip-rule="evenodd" d="M204.589 39.8777L165.712 39.8777V1.00013H169.877C189.048 1.00013 204.589 16.5413 204.589 35.7123V39.8777Z" fill="#A3A3A3" fill-opacity="0.2"/>
<path fill-rule="evenodd" clip-rule="evenodd" d="M160.022 1.00006L121.619 1.00006V39.8776H125.734C144.671 39.8776 160.022 24.3365 160.022 5.16552V1.00006Z" fill="#A3A3A3" fill-opacity="0.2"/>
<path fill-rule="evenodd" clip-rule="evenodd" d="M78 1.00006L116.878 1.00006V39.8776H112.712C93.5411 39.8776 78 24.3365 78 5.16552V1.00006Z" fill="#A3A3A3" fill-opacity="0.2"/>
<path d="M114.934 84.9188V83.9188H115.878V82.9744H116.878V79.0867H115.878V75.199H116.878V71.3113H115.878V67.4236H116.878V63.5359H115.878V59.6483H116.878V55.7606H115.878V51.8729H116.878V47.9852H115.878V47.0408H115.836V46.0408H113.754V47.0408H112.712C112.077 47.0408 111.446 47.059 110.82 47.0936L110.765 46.0975C109.454 46.17 108.163 46.3161 106.895 46.5301L107.062 47.5125C105.808 47.724 104.577 48.0046 103.375 48.3504L103.099 47.3914C101.843 47.7525 100.617 48.1829 99.4248 48.6776L99.8076 49.5984C98.6382 50.0834 97.5021 50.6325 96.4033 51.241L95.918 50.369C94.7793 50.9997 93.6788 51.6908 92.623 52.4412L93.2031 53.2557C92.1739 53.9873 91.1872 54.7752 90.248 55.6151L89.583 54.8719C88.6149 55.7376 87.6958 56.6567 86.8301 57.6248L87.5742 58.2899C86.7345 59.2289 85.9463 60.2149 85.2148 61.244L84.3994 60.6658C83.6488 61.7218 82.9579 62.8227 82.3271 63.9617L83.2002 64.4442C82.5916 65.543 82.0426 66.6799 81.5576 67.8494L80.6357 67.4666C80.1411 68.6593 79.7097 69.885 79.3486 71.1404L80.3096 71.4158C79.9637 72.6182 79.6832 73.8487 79.4717 75.1024L78.4873 74.9373C78.2734 76.2051 78.1271 77.4959 78.0547 78.8065L79.0518 78.8611C79.0345 79.1741 79.0214 79.4883 79.0127 79.8035L79 80.7537V81.7947H78V83.8777H79V83.9188H79.9443V84.9188H83.832V83.9188H87.7197V84.9188H91.6074V83.9188H95.4951V84.9188H99.3828V83.9188H103.271V84.9188H107.158V83.9188H111.046V84.9188H114.934Z" stroke="#A3A3A3" stroke-opacity="0.3" stroke-width="2" stroke-dasharray="4 4"/>
<path fill-rule="evenodd" clip-rule="evenodd" d="M159.548 46.0412L120.67 46.0412V84.9188H124.836C144.007 84.9188 159.548 69.3777 159.548 50.2067V46.0412Z" fill="#A3A3A3" fill-opacity="0.2"/>
<path d="M297.171 1.00006V2.9444H296.615V3.50006L294.671 3.50006V6.83209H297.171V10.7198H294.671V14.6075H297.171V18.4952H294.671V22.3829H297.171V26.2706H294.671V30.1583H297.171V34.046H294.671V37.378H295.713V37.9337H297.171V39.878H297.795V37.378H298.837C299.444 37.378 300.048 37.3613 300.646 37.3282L300.784 39.8214C302.095 39.7488 303.386 39.6027 304.654 39.3887L304.238 36.9268C305.436 36.7248 306.611 36.4572 307.759 36.127L308.45 38.5274C309.706 38.1663 310.931 37.7359 312.124 37.2413L311.166 34.9346C312.283 34.4714 313.369 33.9467 314.419 33.3653L315.631 35.5499C316.77 34.9191 317.87 34.228 318.926 33.4776L317.477 31.4405C318.46 30.7414 319.403 29.9883 320.301 29.1856L321.966 31.0469C322.934 30.1812 323.853 29.2621 324.719 28.294L322.856 26.629C323.659 25.7315 324.412 24.7891 325.111 23.8057L327.149 25.253C327.9 24.197 328.591 23.0961 329.222 21.9571L327.036 20.7481C327.618 19.6982 328.142 18.6123 328.605 17.4952L330.913 18.4522C331.408 17.2595 331.839 16.0338 332.2 14.7784L329.798 14.088C330.128 12.9395 330.397 11.7641 330.599 10.5665L333.062 10.9815C333.275 9.71372 333.422 8.42289 333.494 7.11237L330.999 6.97467C331.016 6.67535 331.028 6.37487 331.036 6.0733L331.049 5.1651V4.12408H333.549V3.50006L331.604 3.50006V2.04108H331.049V1.00006L327.717 1.00006V3.50006L323.829 3.50006V1.00006L319.941 1.00006V3.50006L316.054 3.50006V1.00006L312.166 1.00006V3.50006L308.278 3.50006V1.00006L304.391 1.00006V3.50006L300.503 3.50006V1.00006L297.171 1.00006Z" stroke="#A3A3A3" stroke-opacity="0.3" stroke-width="5" stroke-dasharray="4 4"/>
<path fill-rule="evenodd" clip-rule="evenodd" d="M251.527 1.00006L289.93 1.00006V39.8776H285.816C266.878 39.8776 251.527 24.3365 251.527 5.16552V1.00006Z" fill="#A3A3A3" fill-opacity="0.2"/>
<path fill-rule="evenodd" clip-rule="evenodd" d="M251.527 84.9188H289.93V46.0412H285.816C266.878 46.0412 251.527 61.5823 251.527 80.7533V84.9188Z" fill="#A3A3A3" fill-opacity="0.2"/>
<path fill-rule="evenodd" clip-rule="evenodd" d="M332.601 46.0412L294.197 46.0412V84.9188H298.312C317.249 84.9188 332.601 69.3777 332.601 50.2067V46.0412Z" fill="#A3A3A3" fill-opacity="0.2"/>
<path d="M167.737 46.0412V47.9856H167.157V48.5412H165.237V51.8733H167.737V55.761L165.237 55.761V59.6487L167.737 59.6487V63.5363H165.237V67.424H167.737V71.3117H165.237V75.1994H167.737V79.0871H165.237V82.4192H166.266V82.9748H167.737V84.9192H168.323V82.4192H169.352C169.954 82.4192 170.553 82.4018 171.146 82.3684L171.287 84.8615C172.59 84.7882 173.873 84.6406 175.133 84.424L174.709 81.9641C175.896 81.76 177.061 81.489 178.199 81.1555L178.902 83.552C180.148 83.1871 181.363 82.7527 182.546 82.2531L181.573 79.9524C182.678 79.4856 183.753 78.958 184.791 78.3723L186.019 80.5471C187.145 79.9116 188.233 79.2149 189.276 78.4592L187.81 76.4358C188.78 75.7335 189.71 74.9771 190.595 74.1711L192.278 76.0178C193.232 75.1492 194.136 74.2267 194.988 73.2561L193.11 71.6086C193.899 70.7102 194.639 69.7666 195.326 68.7824L197.376 70.2121C198.112 69.1569 198.791 68.0577 199.409 66.9201L197.215 65.7278C197.784 64.6802 198.298 63.597 198.752 62.4826L201.065 63.424C201.549 62.2358 201.971 61.0151 202.324 59.7649L199.918 59.0871C200.241 57.9437 200.503 56.7735 200.7 55.5813L203.165 55.9885C203.374 54.7276 203.516 53.4439 203.587 52.1408L201.092 52.007C201.108 51.7091 201.12 51.4097 201.128 51.1096L201.141 50.2063V49.1653H203.641V48.5412H201.721V47.0822H201.141V46.0412H197.88V48.5412H194.04V46.0412H190.199V48.5412H186.359V46.0412H182.519V48.5412H178.679V46.0412H174.838V48.5412L170.998 48.5412V46.0412H167.737Z" stroke="#A3A3A3" stroke-opacity="0.3" stroke-width="5" stroke-dasharray="4 4"/>
<path fill-rule="evenodd" clip-rule="evenodd" d="M208.382 46.0412L247.26 46.0412V84.9188H243.094C223.923 84.9188 208.382 69.3777 208.382 50.2067V46.0412Z" fill="#A3A3A3" fill-opacity="0.2"/>
</g>
<g style="mix-blend-mode:plus-lighter" opacity="0.2">
<path d="M760.76 219.878V217.933H761.315V217.378H763.26V214.046H760.76V210.158H763.26V206.27H760.76V202.383H763.26V198.495H760.76V194.607H763.26V190.72H760.76V186.832H763.26V183.5H762.218V182.944H760.76V181H760.136V183.5H759.094C758.486 183.5 757.883 183.517 757.284 183.55L757.146 181.056C755.836 181.129 754.545 181.275 753.276 181.489L753.692 183.951C752.495 184.153 751.32 184.421 750.172 184.751L749.48 182.35C748.225 182.711 746.999 183.142 745.807 183.637L746.765 185.943C745.648 186.406 744.562 186.931 743.512 187.513L742.3 185.328C741.161 185.959 740.061 186.65 739.005 187.4L740.454 189.437C739.471 190.136 738.527 190.89 737.63 191.692L735.965 189.831C734.997 190.697 734.078 191.616 733.212 192.584L735.074 194.249C734.272 195.146 733.518 196.089 732.819 197.072L730.781 195.625C730.031 196.681 729.34 197.782 728.709 198.921L730.895 200.13C730.313 201.18 729.788 202.265 729.325 203.383L727.018 202.426C726.523 203.618 726.092 204.844 725.73 206.099L728.133 206.79C727.803 207.938 727.534 209.114 727.332 210.311L724.869 209.896C724.655 211.164 724.509 212.455 724.437 213.765L726.932 213.903C726.915 214.202 726.903 214.503 726.895 214.805L726.882 215.713V216.754H724.382V217.378H726.326V218.837H726.882V219.878H730.214V217.378H734.102V219.878H737.989V217.378H741.877V219.878H745.765V217.378H749.652V219.878H753.54V217.378H757.428V219.878H760.76Z" stroke="#A3A3A3" stroke-opacity="0.3" stroke-width="5" stroke-dasharray="4 4"/>
<path fill-rule="evenodd" clip-rule="evenodd" d="M720.589 219.878H681.711V181H685.877C705.048 181 720.589 196.541 720.589 215.712V219.878Z" fill="#A3A3A3" fill-opacity="0.2"/>
<path fill-rule="evenodd" clip-rule="evenodd" d="M676.022 181H637.619V219.878H641.733C660.67 219.878 676.022 204.337 676.022 185.166V181Z" fill="#A3A3A3" fill-opacity="0.2"/>
<path fill-rule="evenodd" clip-rule="evenodd" d="M594 181H632.878V219.878H628.712C609.541 219.878 594 204.337 594 185.166V181Z" fill="#A3A3A3" fill-opacity="0.2"/>
<path d="M813.171 181V182.944H812.615V183.5H810.671V186.832H813.171V190.72H810.671V194.608H813.171V198.495H810.671V202.383H813.171V206.271H810.671V210.158H813.171V214.046H810.671V217.378H811.713V217.934H813.171V219.878H813.795V217.378H814.837C815.444 217.378 816.048 217.361 816.646 217.328L816.784 219.821C818.095 219.749 819.386 219.603 820.654 219.389L820.238 216.927C821.436 216.725 822.611 216.457 823.759 216.127L824.45 218.527C825.706 218.166 826.931 217.736 828.124 217.241L827.166 214.935C828.283 214.471 829.369 213.947 830.419 213.365L831.631 215.55C832.77 214.919 833.87 214.228 834.926 213.478L833.477 211.441C834.46 210.741 835.403 209.988 836.301 209.186L837.966 211.047C838.934 210.181 839.853 209.262 840.719 208.294L838.856 206.629C839.659 205.732 840.412 204.789 841.111 203.806L843.149 205.253C843.9 204.197 844.591 203.096 845.222 201.957L843.036 200.748C843.618 199.698 844.142 198.612 844.605 197.495L846.913 198.452C847.408 197.26 847.839 196.034 848.2 194.778L845.798 194.088C846.128 192.94 846.397 191.764 846.599 190.567L849.062 190.982C849.275 189.714 849.422 188.423 849.494 187.112L846.999 186.975C847.016 186.675 847.028 186.375 847.036 186.073L847.049 185.165V184.124H849.549V183.5H847.604V182.041H847.049V181H843.717V183.5H839.829V181H835.941V183.5H832.054V181H828.166V183.5H824.278V181H820.391V183.5H816.503V181H813.171Z" stroke="#A3A3A3" stroke-opacity="0.3" stroke-width="5" stroke-dasharray="4 4"/>
<path fill-rule="evenodd" clip-rule="evenodd" d="M767.526 181H805.93V219.878H801.815C782.878 219.878 767.526 204.337 767.526 185.166V181Z" fill="#A3A3A3" fill-opacity="0.2"/>
</g>
<g style="mix-blend-mode:plus-lighter" opacity="0.2">
<path d="M334.76 219.878V217.933H335.315V217.378H337.26V214.046H334.76V210.158H337.26V206.27H334.76V202.383H337.26V198.495H334.76V194.607H337.26V190.719H334.76V186.832H337.26V183.5H336.218V182.944H334.76V181H334.136V183.5H333.094C332.486 183.5 331.883 183.516 331.284 183.55L331.146 181.056C329.836 181.129 328.545 181.275 327.276 181.489L327.692 183.951C326.495 184.153 325.32 184.42 324.172 184.751L323.48 182.35C322.225 182.711 320.999 183.142 319.807 183.636L320.765 185.943C319.648 186.406 318.562 186.931 317.512 187.512L316.3 185.328C315.161 185.959 314.061 186.65 313.005 187.4L314.454 189.437C313.471 190.136 312.527 190.889 311.63 191.692L309.965 189.831C308.997 190.697 308.078 191.616 307.212 192.584L309.074 194.249C308.272 195.146 307.518 196.089 306.819 197.072L304.781 195.625C304.031 196.681 303.34 197.782 302.709 198.921L304.895 200.13C304.313 201.18 303.788 202.265 303.325 203.383L301.018 202.426C300.523 203.618 300.092 204.844 299.73 206.099L302.133 206.79C301.803 207.938 301.534 209.114 301.332 210.311L298.869 209.896C298.655 211.164 298.509 212.455 298.437 213.765L300.932 213.903C300.915 214.202 300.903 214.503 300.895 214.804L300.882 215.713V216.754H298.382V217.378H300.326V218.837H300.882V219.878H304.214V217.378H308.102V219.878H311.989V217.378H315.877V219.878H319.765V217.378H323.652V219.878H327.54V217.378H331.428V219.878H334.76Z" stroke="#A3A3A3" stroke-opacity="0.3" stroke-width="5" stroke-dasharray="4 4"/>
<path fill-rule="evenodd" clip-rule="evenodd" d="M294.589 219.878H255.711V181H259.877C279.048 181 294.589 196.541 294.589 215.712V219.878Z" fill="#A3A3A3" fill-opacity="0.2"/>
<path fill-rule="evenodd" clip-rule="evenodd" d="M250.022 181H211.619V219.878H215.733C234.67 219.878 250.022 204.336 250.022 185.165V181Z" fill="#A3A3A3" fill-opacity="0.2"/>
<path fill-rule="evenodd" clip-rule="evenodd" d="M168 181H206.878V219.878H202.712C183.541 219.878 168 204.336 168 185.165V181Z" fill="#A3A3A3" fill-opacity="0.2"/>
<path d="M387.171 181V182.944H386.615V183.5H384.671V186.832H387.171V190.72H384.671V194.607H387.171V198.495H384.671V202.383H387.171V206.271H384.671V210.158H387.171V214.046H384.671V217.378H385.713V217.934H387.171V219.878H387.795V217.378H388.837C389.444 217.378 390.048 217.361 390.646 217.328L390.784 219.821C392.095 219.749 393.386 219.603 394.654 219.389L394.238 216.927C395.436 216.725 396.611 216.457 397.759 216.127L398.45 218.527C399.706 218.166 400.931 217.736 402.124 217.241L401.166 214.935C402.283 214.471 403.369 213.947 404.419 213.365L405.631 215.55C406.77 214.919 407.87 214.228 408.926 213.478L407.477 211.44C408.46 210.741 409.403 209.988 410.301 209.186L411.966 211.047C412.934 210.181 413.853 209.262 414.719 208.294L412.856 206.629C413.659 205.731 414.412 204.789 415.111 203.806L417.149 205.253C417.9 204.197 418.591 203.096 419.222 201.957L417.036 200.748C417.618 199.698 418.142 198.612 418.605 197.495L420.913 198.452C421.408 197.259 421.839 196.034 422.2 194.778L419.798 194.088C420.128 192.939 420.397 191.764 420.599 190.566L423.062 190.981C423.275 189.714 423.422 188.423 423.494 187.112L420.999 186.975C421.016 186.675 421.028 186.375 421.036 186.073L421.049 185.165V184.124H423.549V183.5H421.604V182.041H421.049V181H417.717V183.5H413.829V181H409.941V183.5H406.054V181H402.166V183.5H398.278V181H394.391V183.5H390.503V181H387.171Z" stroke="#A3A3A3" stroke-opacity="0.3" stroke-width="5" stroke-dasharray="4 4"/>
<path fill-rule="evenodd" clip-rule="evenodd" d="M341.526 181H379.93V219.878H375.815C356.878 219.878 341.526 204.336 341.526 185.165V181Z" fill="#A3A3A3" fill-opacity="0.2"/>
</g>
<g style="mix-blend-mode:plus-lighter" opacity="0.2">
<path fill-rule="evenodd" clip-rule="evenodd" d="M555.62 223.382H594.498V184.505H590.332C571.161 184.505 555.62 200.046 555.62 219.217V223.382Z" fill="#A3A3A3" fill-opacity="0.1"/>
<path fill-rule="evenodd" clip-rule="evenodd" d="M551.827 223.382H512.949V184.505H517.115C536.286 184.505 551.827 200.046 551.827 219.217V223.382Z" fill="#A3A3A3" fill-opacity="0.1"/>
<path fill-rule="evenodd" clip-rule="evenodd" d="M507.26 184.505H468.856V223.382H472.971C491.908 223.382 507.26 207.841 507.26 188.67V184.505Z" fill="#A3A3A3" fill-opacity="0.1"/>
<path fill-rule="evenodd" clip-rule="evenodd" d="M425.238 184.505H464.115V223.382H459.95C440.779 223.382 425.238 207.841 425.238 188.67V184.505Z" fill="#A3A3A3" fill-opacity="0.1"/>
<path fill-rule="evenodd" clip-rule="evenodd" d="M468.382 131.878H507.26V93.0002H503.094C483.923 93.0002 468.382 108.541 468.382 127.712V131.878Z" fill="#A3A3A3" fill-opacity="0.1"/>
<path d="M504.76 131.878V129.933H505.316V129.378H507.26V126.046H504.76V122.158H507.26V118.27H504.76V114.383H507.26V110.495H504.76V106.607H507.26V102.72H504.76V98.8318H507.26V95.4998H506.218V94.9442H504.76V92.9998H504.136V95.4998H503.094C502.487 95.4998 501.883 95.5165 501.285 95.5496L501.147 93.0565C499.836 93.129 498.545 93.2751 497.277 93.4891L497.693 95.951C496.495 96.153 495.321 96.4206 494.172 96.7508L493.481 94.3504C492.226 94.7115 491 95.1419 489.807 95.6365L490.765 97.9432C489.648 98.4064 488.562 98.9311 487.512 99.5125L486.3 97.3279C485.162 97.9587 484.061 98.6498 483.005 99.4002L484.455 101.437C483.471 102.136 482.528 102.89 481.63 103.692L479.965 101.831C478.997 102.697 478.078 103.616 477.212 104.584L479.075 106.249C478.272 107.146 477.519 108.089 476.82 109.072L474.782 107.625C474.031 108.681 473.34 109.782 472.709 110.921L474.895 112.13C474.314 113.18 473.789 114.265 473.326 115.383L471.018 114.426C470.523 115.618 470.092 116.844 469.731 118.099L472.133 118.79C471.803 119.938 471.535 121.114 471.333 122.311L468.87 121.896C468.656 123.164 468.509 124.455 468.437 125.765L470.932 125.903C470.916 126.202 470.903 126.503 470.895 126.805L470.882 127.713V128.754H468.382V129.378H470.327V130.837H470.882V131.878H474.214V129.378H478.102V131.878H481.99V129.378H485.877V131.878H489.765V129.378H493.653V131.878H497.541V129.378H501.428V131.878H504.76Z" stroke="#A3A3A3" stroke-opacity="0.3" stroke-width="5" stroke-dasharray="4 4"/>
<path fill-rule="evenodd" clip-rule="evenodd" d="M464.589 131.878H425.712V93.0002H429.877C449.048 93.0002 464.589 108.541 464.589 127.712V131.878Z" fill="#A3A3A3" fill-opacity="0.1"/>
<path fill-rule="evenodd" clip-rule="evenodd" d="M420.022 93.0001H381.619V131.878H385.734C404.671 131.878 420.022 116.336 420.022 97.1655V93.0001Z" fill="#A3A3A3" fill-opacity="0.1"/>
<path fill-rule="evenodd" clip-rule="evenodd" d="M338 93.0001H376.878V131.878H372.712C353.541 131.878 338 116.336 338 97.1655V93.0001Z" fill="#A3A3A3" fill-opacity="0.1"/>
<path fill-rule="evenodd" clip-rule="evenodd" d="M338 176.919H376.878V138.041H372.712C353.541 138.041 338 153.582 338 172.753V176.919Z" fill="#A3A3A3" fill-opacity="0.1"/>
<path d="M374.934 176.919V175.919H375.878V174.974H376.878V171.087H375.878V167.199H376.878V163.311H375.878V159.424H376.878V155.536H375.878V151.648H376.878V147.761H375.878V143.873H376.878V139.985H375.878V139.041H375.836V138.041H373.754V139.041H372.712C372.077 139.041 371.446 139.059 370.82 139.094L370.765 138.097C369.454 138.17 368.163 138.316 366.895 138.53L367.062 139.513C365.808 139.724 364.577 140.005 363.375 140.35L363.099 139.391C361.843 139.753 360.617 140.183 359.425 140.678L359.808 141.598C358.638 142.083 357.502 142.633 356.403 143.241L355.918 142.369C354.779 143 353.679 143.691 352.623 144.441L353.203 145.256C352.174 145.987 351.187 146.775 350.248 147.615L349.583 146.872C348.615 147.738 347.696 148.657 346.83 149.625L347.574 150.29C346.735 151.229 345.946 152.215 345.215 153.244L344.399 152.666C343.649 153.722 342.958 154.823 342.327 155.962L343.2 156.444C342.592 157.543 342.043 158.68 341.558 159.849L340.636 159.467C340.141 160.659 339.71 161.885 339.349 163.14L340.31 163.416C339.964 164.618 339.683 165.849 339.472 167.102L338.487 166.937C338.273 168.205 338.127 169.496 338.055 170.806L339.052 170.861C339.034 171.174 339.021 171.488 339.013 171.804L339 172.754V173.795H338V175.878H339V175.919H339.944V176.919H343.832V175.919H347.72V176.919H351.607V175.919H355.495V176.919H359.383V175.919H363.271V176.919H367.158V175.919H371.046V176.919H374.934Z" stroke="#A3A3A3" stroke-opacity="0.3" stroke-width="2" stroke-dasharray="4 4"/>
<path fill-rule="evenodd" clip-rule="evenodd" d="M419.548 138.041H380.67V176.919H384.836C404.007 176.919 419.548 161.378 419.548 142.207V138.041Z" fill="#A3A3A3" fill-opacity="0.1"/>
<path fill-rule="evenodd" clip-rule="evenodd" d="M593.549 93.0001H554.671V131.878H558.837C578.008 131.878 593.549 116.336 593.549 97.1655V93.0001Z" fill="#A3A3A3" fill-opacity="0.1"/>
<path d="M557.171 93.0001V94.9444H556.615V95.5001H554.671V98.8321H557.171V102.72H554.671V106.607H557.171V110.495H554.671V114.383H557.171V118.271H554.671V122.158H557.171V126.046H554.671V129.378H555.713V129.934H557.171V131.878H557.795V129.378H558.837C559.444 129.378 560.048 129.361 560.646 129.328L560.784 131.821C562.095 131.749 563.386 131.603 564.654 131.389L564.238 128.927C565.436 128.725 566.611 128.457 567.759 128.127L568.45 130.527C569.706 130.166 570.931 129.736 572.124 129.241L571.166 126.935C572.283 126.471 573.369 125.947 574.419 125.365L575.631 127.55C576.77 126.919 577.87 126.228 578.926 125.478L577.477 123.44C578.46 122.741 579.403 121.988 580.301 121.186L581.966 123.047C582.934 122.181 583.853 121.262 584.719 120.294L582.856 118.629C583.659 117.731 584.412 116.789 585.111 115.806L587.149 117.253C587.9 116.197 588.591 115.096 589.222 113.957L587.036 112.748C587.618 111.698 588.142 110.612 588.605 109.495L590.913 110.452C591.408 109.259 591.839 108.034 592.2 106.778L589.798 106.088C590.128 104.94 590.397 103.764 590.599 102.566L593.062 102.982C593.275 101.714 593.422 100.423 593.494 99.1124L590.999 98.9747C591.016 98.6754 591.028 98.3749 591.036 98.0733L591.049 97.1651V96.1241H593.549V95.5001H591.604V94.0411H591.049V93.0001H587.717V95.5001H583.829V93.0001H579.941V95.5001H576.054V93.0001H572.166V95.5001H568.278V93.0001H564.391V95.5001H560.503V93.0001H557.171Z" stroke="#A3A3A3" stroke-opacity="0.3" stroke-width="5" stroke-dasharray="4 4"/>
<path fill-rule="evenodd" clip-rule="evenodd" d="M511.527 93.0001H549.93V131.878H545.816C526.878 131.878 511.527 116.336 511.527 97.1655V93.0001Z" fill="#A3A3A3" fill-opacity="0.1"/>
<path fill-rule="evenodd" clip-rule="evenodd" d="M511.527 176.919H549.93V138.041H545.816C526.878 138.041 511.527 153.582 511.527 172.753V176.919Z" fill="#A3A3A3" fill-opacity="0.1"/>
<path fill-rule="evenodd" clip-rule="evenodd" d="M592.601 138.041H554.197V176.919H558.312C577.249 176.919 592.601 161.378 592.601 142.207V138.041Z" fill="#A3A3A3" fill-opacity="0.1"/>
<path fill-rule="evenodd" clip-rule="evenodd" d="M463.641 138.041H425.237V176.919H429.352C448.289 176.919 463.641 161.378 463.641 142.207V138.041Z" fill="#A3A3A3" fill-opacity="0.1"/>
<path d="M427.737 138.041V139.986H427.157V140.541H425.237V143.873H427.737V147.761H425.237V151.649H427.737V155.536H425.237V159.424H427.737V163.312H425.237V167.199H427.737V171.087H425.237V174.419H426.266V174.975H427.737V176.919H428.323V174.419H429.352C429.954 174.419 430.553 174.402 431.146 174.368L431.287 176.862C432.59 176.788 433.873 176.641 435.133 176.424L434.709 173.964C435.896 173.76 437.061 173.489 438.199 173.155L438.902 175.552C440.148 175.187 441.363 174.753 442.546 174.253L441.573 171.952C442.678 171.486 443.753 170.958 444.791 170.372L446.019 172.547C447.145 171.912 448.233 171.215 449.276 170.459L447.81 168.436C448.78 167.733 449.71 166.977 450.595 166.171L452.278 168.018C453.232 167.149 454.136 166.227 454.988 165.256L453.11 163.609C453.899 162.71 454.639 161.767 455.326 160.782L457.376 162.212C458.112 161.157 458.791 160.058 459.409 158.92L457.215 157.728C457.784 156.68 458.298 155.597 458.752 154.483L461.065 155.424C461.549 154.236 461.971 153.015 462.324 151.765L459.918 151.087C460.241 149.944 460.503 148.773 460.7 147.581L463.165 147.988C463.374 146.728 463.516 145.444 463.587 144.141L461.092 144.007C461.108 143.709 461.12 143.41 461.128 143.11L461.141 142.206V141.165H463.641V140.541H461.721V139.082H461.141V138.041H457.88V140.541H454.04V138.041H450.199V140.541H446.359V138.041H442.519V140.541H438.679V138.041H434.838V140.541H430.998V138.041H427.737Z" stroke="#A3A3A3" stroke-opacity="0.3" stroke-width="5" stroke-dasharray="4 4"/>
<path fill-rule="evenodd" clip-rule="evenodd" d="M468.382 138.041H507.26V176.919H503.094C483.923 176.919 468.382 161.378 468.382 142.207V138.041Z" fill="#A3A3A3" fill-opacity="0.1"/>
</g>
<g style="mix-blend-mode:plus-lighter" opacity="0.2">
<path fill-rule="evenodd" clip-rule="evenodd" d="M719.878 131.382H681V92.5047H685.166C704.337 92.5047 719.878 108.046 719.878 127.217V131.382Z" fill="#A3A3A3" fill-opacity="0.2"/>
<path fill-rule="evenodd" clip-rule="evenodd" d="M723.671 131.382H762.548V92.5047H758.383C739.212 92.5047 723.671 108.046 723.671 127.217V131.382Z" fill="#A3A3A3" fill-opacity="0.2"/>
<path fill-rule="evenodd" clip-rule="evenodd" d="M768.238 92.5047H806.641V131.382H802.527C783.589 131.382 768.238 115.841 768.238 96.6701V92.5047Z" fill="#A3A3A3" fill-opacity="0.2"/>
<path fill-rule="evenodd" clip-rule="evenodd" d="M850.26 92.5047H811.383V131.382H815.548C834.719 131.382 850.26 115.841 850.26 96.6701V92.5047Z" fill="#A3A3A3" fill-opacity="0.2"/>
<path fill-rule="evenodd" clip-rule="evenodd" d="M850.26 176.423H811.383V137.546H815.548C834.719 137.546 850.26 153.087 850.26 172.258V176.423Z" fill="#A3A3A3" fill-opacity="0.2"/>
<path fill-rule="evenodd" clip-rule="evenodd" d="M768.712 137.546H807.59V176.423H803.424C784.253 176.423 768.712 160.882 768.712 141.711V137.546Z" fill="#A3A3A3" fill-opacity="0.2"/>
<path fill-rule="evenodd" clip-rule="evenodd" d="M724.619 137.546H763.023V176.423H758.908C739.971 176.423 724.619 160.882 724.619 141.711V137.546Z" fill="#A3A3A3" fill-opacity="0.2"/>
<path d="M683.5 137.546V139.49H682.944V140.046H681V143.378H683.5V147.266H681V151.153H683.5V155.041H681V158.929H683.5V162.816H681V166.704H683.5V170.592H681V173.924H682.042V174.479H683.5V176.424H684.124V173.924H685.166C685.773 173.924 686.377 173.907 686.976 173.874L687.113 176.367C688.424 176.295 689.715 176.148 690.983 175.934L690.567 173.473C691.765 173.27 692.94 173.003 694.088 172.673L694.779 175.073C696.035 174.712 697.26 174.282 698.453 173.787L697.495 171.48C698.612 171.017 699.698 170.492 700.748 169.911L701.96 172.096C703.099 171.465 704.199 170.774 705.255 170.023L703.806 167.986C704.789 167.287 705.732 166.534 706.63 165.731L708.295 167.593C709.263 166.727 710.182 165.808 711.048 164.84L709.186 163.175C709.988 162.277 710.741 161.335 711.44 160.351L713.479 161.799C714.229 160.743 714.92 159.642 715.551 158.503L713.365 157.294C713.947 156.244 714.471 155.158 714.935 154.041L717.242 154.998C717.737 153.805 718.168 152.58 718.529 151.324L716.127 150.634C716.457 149.485 716.726 148.31 716.928 147.112L719.391 147.527C719.605 146.259 719.751 144.969 719.823 143.658L717.328 143.52C717.345 143.221 717.357 142.921 717.365 142.619L717.378 141.711V140.67H719.878V140.046H717.934V138.587H717.378V137.546H714.046V140.046H710.158V137.546H706.271V140.046H702.383V137.546H698.495V140.046H694.607V137.546H690.72V140.046H686.832V137.546H683.5Z" stroke="#A3A3A3" stroke-opacity="0.3" stroke-width="5" stroke-dasharray="4 4"/>
<path d="M770.738 39.8777V37.9334H770.182V37.3777H768.238V34.0457H770.738V30.158H768.238V26.2703H770.738V22.3826H768.238V18.4949H770.738V14.6072H768.238V10.7195H770.738V6.83182H768.238V3.49979H769.28V2.94412H770.738V0.999786H771.362V3.49979H772.404C773.011 3.49979 773.615 3.51649 774.213 3.54959L774.351 1.05643C775.662 1.12893 776.953 1.27504 778.221 1.48904L777.805 3.95096C779.003 4.15301 780.177 4.42053 781.326 4.75076L782.017 2.35037C783.272 2.71146 784.498 3.1419 785.691 3.63651L784.733 5.94315C785.85 6.40639 786.936 6.93104 787.986 7.51248L789.198 5.32791C790.336 5.95864 791.437 6.64973 792.493 7.40018L791.043 9.43729C792.027 10.1364 792.97 10.8895 793.868 11.6922L795.533 9.83084C796.501 10.6966 797.42 11.6156 798.286 12.5838L796.423 14.2488C797.226 15.1463 797.979 16.0886 798.678 17.0721L800.716 15.6248C801.467 16.6808 802.158 17.7817 802.789 18.9207L800.603 20.1297C801.185 21.1796 801.709 22.2654 802.172 23.3826L804.48 22.4256C804.975 23.6183 805.406 24.8439 805.767 26.0994L803.365 26.7898C803.695 27.9383 803.963 29.1137 804.166 30.3113L806.628 29.8963C806.842 31.1641 806.989 32.4549 807.061 33.7654L804.566 33.9031C804.582 34.2024 804.595 34.5029 804.603 34.8045L804.616 35.7127V36.7537H807.116V37.3777H805.171V38.8367H804.616V39.8777H801.284V37.3777H797.396V39.8777H793.508V37.3777H789.621V39.8777H785.733V37.3777H781.845V39.8777L777.958 39.8777V37.3777L774.07 37.3777V39.8777H770.738Z" stroke="#A3A3A3" stroke-opacity="0.3" stroke-width="5" stroke-dasharray="4 4"/>
<path fill-rule="evenodd" clip-rule="evenodd" d="M810.909 39.8777L849.786 39.8777V1.00013H845.621C826.45 1.00013 810.909 16.5413 810.909 35.7123V39.8777Z" fill="#A3A3A3" fill-opacity="0.2"/>
<path fill-rule="evenodd" clip-rule="evenodd" d="M855.476 1.00006L893.879 1.00006V39.8776H889.764C870.827 39.8776 855.476 24.3365 855.476 5.16552V1.00006Z" fill="#A3A3A3" fill-opacity="0.2"/>
<path fill-rule="evenodd" clip-rule="evenodd" d="M937.498 1.00006L898.62 1.00006V39.8776H902.786C921.957 39.8776 937.498 24.3365 937.498 5.16552V1.00006Z" fill="#A3A3A3" fill-opacity="0.2"/>
<path d="M900.564 84.9188V83.9188H899.62V82.9744H898.62V79.0867H899.62V75.199H898.62V71.3113H899.62V67.4236H898.62V63.5359H899.62V59.6483H898.62V55.7606H899.62V51.8729H898.62V47.9852H899.62V47.0408H899.662V46.0408H901.744V47.0408H902.786C903.421 47.0408 904.052 47.059 904.678 47.0936L904.733 46.0975C906.044 46.17 907.335 46.3161 908.604 46.5301L908.437 47.5125C909.69 47.724 910.921 48.0046 912.123 48.3504L912.399 47.3914C913.655 47.7525 914.881 48.1829 916.073 48.6776L915.69 49.5984C916.86 50.0834 917.996 50.6325 919.095 51.241L919.58 50.369C920.719 50.9997 921.819 51.6908 922.875 52.4412L922.295 53.2557C923.324 53.9873 924.311 54.7752 925.25 55.6151L925.915 54.8719C926.883 55.7376 927.802 56.6567 928.668 57.6248L927.924 58.2899C928.764 59.2289 929.552 60.2149 930.283 61.244L931.099 60.6658C931.849 61.7218 932.54 62.8227 933.171 63.9617L932.298 64.4442C932.906 65.543 933.455 66.6799 933.94 67.8494L934.862 67.4666C935.357 68.6593 935.788 69.885 936.149 71.1404L935.188 71.4158C935.534 72.6182 935.815 73.8487 936.026 75.1024L937.011 74.9373C937.225 76.2051 937.371 77.4959 937.443 78.8065L936.446 78.8611C936.464 79.1741 936.477 79.4883 936.485 79.8035L936.498 80.7537V81.7947H937.498V83.8777H936.498V83.9188H935.554V84.9188H931.666V83.9188H927.778V84.9188H923.891V83.9188H920.003V84.9188H916.115V83.9188H912.228V84.9188H908.34V83.9188H904.452V84.9188H900.564Z" stroke="#A3A3A3" stroke-opacity="0.3" stroke-width="2" stroke-dasharray="4 4"/>
<path fill-rule="evenodd" clip-rule="evenodd" d="M855.95 46.0412L894.828 46.0412V84.9188H890.662C871.491 84.9188 855.95 69.3777 855.95 50.2067V46.0412Z" fill="#A3A3A3" fill-opacity="0.2"/>
<path d="M718.327 1.00006V2.9444H718.883V3.50006L720.827 3.50006V6.83209H718.327V10.7198H720.827V14.6075H718.327V18.4952H720.827V22.3829H718.327V26.2706H720.827V30.1583H718.327V34.046H720.827V37.378H719.785V37.9337H718.327V39.878H717.703V37.378H716.661C716.054 37.378 715.45 37.3613 714.852 37.3282L714.714 39.8214C713.403 39.7488 712.112 39.6027 710.844 39.3887L711.26 36.9268C710.062 36.7248 708.887 36.4572 707.739 36.127L707.048 38.5274C705.792 38.1663 704.567 37.7359 703.374 37.2413L704.332 34.9346C703.215 34.4714 702.129 33.9467 701.079 33.3653L699.867 35.5499C698.728 34.9191 697.628 34.228 696.572 33.4776L698.021 31.4405C697.038 30.7414 696.095 29.9883 695.197 29.1856L693.532 31.0469C692.564 30.1812 691.645 29.2621 690.779 28.294L692.642 26.629C691.839 25.7315 691.086 24.7891 690.387 23.8057L688.349 25.253C687.598 24.197 686.907 23.0961 686.276 21.9571L688.462 20.7481C687.88 19.6982 687.356 18.6123 686.893 17.4952L684.585 18.4522C684.09 17.2595 683.659 16.0338 683.298 14.7784L685.7 14.088C685.37 12.9395 685.101 11.7641 684.899 10.5665L682.437 10.9815C682.223 9.71372 682.076 8.42289 682.004 7.11237L684.499 6.97467C684.482 6.67535 684.47 6.37487 684.462 6.0733L684.449 5.1651V4.12408H681.949V3.50006L683.894 3.50006V2.04108H684.449V1.00006L687.781 1.00006V3.50006L691.669 3.50006V1.00006L695.557 1.00006V3.50006L699.444 3.50006V1.00006L703.332 1.00006V3.50006L707.22 3.50006V1.00006L711.107 1.00006V3.50006L714.995 3.50006V1.00006L718.327 1.00006Z" stroke="#A3A3A3" stroke-opacity="0.3" stroke-width="5" stroke-dasharray="4 4"/>
<path fill-rule="evenodd" clip-rule="evenodd" d="M763.971 1.00006L725.568 1.00006V39.8776H729.682C748.62 39.8776 763.971 24.3365 763.971 5.16552V1.00006Z" fill="#A3A3A3" fill-opacity="0.2"/>
<path fill-rule="evenodd" clip-rule="evenodd" d="M763.971 84.9188H725.568V46.0412H729.682C748.62 46.0412 763.971 61.5823 763.971 80.7533V84.9188Z" fill="#A3A3A3" fill-opacity="0.2"/>
<path fill-rule="evenodd" clip-rule="evenodd" d="M682.897 46.0412L721.301 46.0412V84.9188H717.186C698.249 84.9188 682.897 69.3777 682.897 50.2067V46.0412Z" fill="#A3A3A3" fill-opacity="0.2"/>
<path d="M847.761 46.0412V47.9856H848.341V48.5412H850.261V51.8733H847.761V55.761L850.261 55.761V59.6487L847.761 59.6487V63.5363H850.261V67.424H847.761V71.3117H850.261V75.1994H847.761V79.0871H850.261V82.4192H849.232V82.9748H847.761V84.9192H847.175V82.4192H846.146C845.544 82.4192 844.945 82.4018 844.352 82.3684L844.211 84.8615C842.908 84.7882 841.625 84.6406 840.365 84.424L840.789 81.9641C839.602 81.76 838.437 81.489 837.299 81.1555L836.596 83.552C835.35 83.1871 834.135 82.7527 832.952 82.2531L833.925 79.9524C832.82 79.4856 831.745 78.958 830.707 78.3723L829.479 80.5471C828.353 79.9116 827.265 79.2149 826.222 78.4592L827.688 76.4358C826.719 75.7335 825.788 74.9771 824.903 74.1711L823.22 76.0178C822.266 75.1492 821.362 74.2267 820.51 73.2561L822.388 71.6086C821.599 70.7102 820.859 69.7666 820.172 68.7824L818.122 70.2121C817.386 69.1569 816.707 68.0577 816.089 66.9201L818.283 65.7278C817.714 64.6802 817.2 63.597 816.746 62.4826L814.433 63.424C813.949 62.2358 813.527 61.0151 813.174 59.7649L815.58 59.0871C815.257 57.9437 814.995 56.7735 814.798 55.5813L812.333 55.9885C812.124 54.7276 811.982 53.4439 811.911 52.1408L814.406 52.007C814.39 51.7091 814.378 51.4097 814.37 51.1096L814.357 50.2063V49.1653H811.857V48.5412H813.777V47.0822H814.357V46.0412H817.618V48.5412H821.458V46.0412H825.299V48.5412H829.139V46.0412H832.979V48.5412H836.819V46.0412H840.66V48.5412L844.5 48.5412V46.0412H847.761Z" stroke="#A3A3A3" stroke-opacity="0.3" stroke-width="5" stroke-dasharray="4 4"/>
<path fill-rule="evenodd" clip-rule="evenodd" d="M807.116 46.0412L768.238 46.0412V84.9188H772.404C791.575 84.9188 807.116 69.3777 807.116 50.2067V46.0412Z" fill="#A3A3A3" fill-opacity="0.2"/>
</g>
</svg>
