<svg width="20" height="20" viewBox="0 0 20 20" fill="none" xmlns="http://www.w3.org/2000/svg">
<path d="M3.33643 5.15373C3.33643 4.67175 3.52789 4.20951 3.8687 3.8687C4.20951 3.52789 4.67175 3.33643 5.15373 3.33643H6.97104C7.45302 3.33643 7.91526 3.52789 8.25607 3.8687C8.59688 4.20951 8.78835 4.67175 8.78835 5.15373V6.97104C8.78835 7.45302 8.59688 7.91526 8.25607 8.25607C7.91526 8.59688 7.45302 8.78835 6.97104 8.78835H5.15373C4.67175 8.78835 4.20951 8.59688 3.8687 8.25607C3.52789 7.91526 3.33643 7.45302 3.33643 6.97104V5.15373ZM3.33643 13.0287C3.33643 12.5468 3.52789 12.0845 3.8687 11.7437C4.20951 11.4029 4.67175 11.2114 5.15373 11.2114H6.97104C7.45302 11.2114 7.91526 11.4029 8.25607 11.7437C8.59688 12.0845 8.78835 12.5468 8.78835 13.0287V14.846C8.78835 15.328 8.59688 15.7903 8.25607 16.1311C7.91526 16.4719 7.45302 16.6633 6.97104 16.6633H5.15373C4.67175 16.6633 4.20951 16.4719 3.8687 16.1311C3.52789 15.7903 3.33643 15.328 3.33643 14.846V13.0287ZM11.2114 5.15373C11.2114 4.67175 11.4029 4.20951 11.7437 3.8687C12.0845 3.52789 12.5468 3.33643 13.0287 3.33643H14.846C15.328 3.33643 15.7903 3.52789 16.1311 3.8687C16.4719 4.20951 16.6633 4.67175 16.6633 5.15373V6.97104C16.6633 7.45302 16.4719 7.91526 16.1311 8.25607C15.7903 8.59688 15.328 8.78835 14.846 8.78835H13.0287C12.5468 8.78835 12.0845 8.59688 11.7437 8.25607C11.4029 7.91526 11.2114 7.45302 11.2114 6.97104V5.15373ZM11.2114 13.0287C11.2114 12.5468 11.4029 12.0845 11.7437 11.7437C12.0845 11.4029 12.5468 11.2114 13.0287 11.2114H14.846C15.328 11.2114 15.7903 11.4029 16.1311 11.7437C16.4719 12.0845 16.6633 12.5468 16.6633 13.0287V14.846C16.6633 15.328 16.4719 15.7903 16.1311 16.1311C15.7903 16.4719 15.328 16.6633 14.846 16.6633H13.0287C12.5468 16.6633 12.0845 16.4719 11.7437 16.1311C11.4029 15.7903 11.2114 15.328 11.2114 14.846V13.0287Z" stroke="#015551" stroke-width="1.5" stroke-linecap="round" stroke-linejoin="round"/>
</svg>
