<svg width="16" height="18" viewBox="0 0 16 18" fill="none" xmlns="http://www.w3.org/2000/svg">
<path d="M10.3077 13.1044C11.8126 12.9262 13.2912 12.5711 14.7129 12.0463C13.5089 10.7127 12.8436 8.9791 12.8463 7.18239V6.57662C12.8463 5.29134 12.3357 4.0587 11.4269 3.14987C10.518 2.24104 9.28541 1.73047 8.00013 1.73047C6.71485 1.73047 5.48221 2.24104 4.57338 3.14987C3.66455 4.0587 3.15398 5.29134 3.15398 6.57662V7.18239C3.15641 8.97921 2.49085 10.7128 1.28659 12.0463C2.68632 12.5632 4.16198 12.9227 5.69255 13.1044M10.3077 13.1044C8.7747 13.2862 7.22557 13.2862 5.69255 13.1044M10.3077 13.1044C10.4241 13.4677 10.453 13.8534 10.3922 14.2301C10.3313 14.6067 10.1824 14.9637 9.95748 15.2719C9.73257 15.5801 9.43807 15.8308 9.09794 16.0037C8.75781 16.1766 8.38167 16.2667 8.00013 16.2667C7.6186 16.2667 7.24245 16.1766 6.90232 16.0037C6.56219 15.8308 6.26769 15.5801 6.04279 15.2719C5.81788 14.9637 5.66894 14.6067 5.60808 14.2301C5.54722 13.8534 5.57616 13.4677 5.69255 13.1044M0.831055 5.36508C1.0588 4.01217 1.66604 2.75175 2.58213 1.73047M13.4181 1.73047C14.3342 2.75175 14.9415 4.01217 15.1692 5.36508" stroke="#015551" stroke-width="1.5" stroke-linecap="round" stroke-linejoin="round"/>
</svg>
