<svg width="20" height="20" viewBox="0 0 20 20" fill="none" xmlns="http://www.w3.org/2000/svg">
<path d="M13.0288 7.57662V4.54778C13.0288 4.0658 12.8374 3.60356 12.4966 3.26275C12.1558 2.92193 11.6935 2.73047 11.2115 2.73047H6.36538C5.8834 2.73047 5.42117 2.92193 5.08035 3.26275C4.73954 3.60356 4.54808 4.0658 4.54808 4.54778V15.4516C4.54808 15.9336 4.73954 16.3958 5.08035 16.7367C5.42117 17.0775 5.8834 17.2689 6.36538 17.2689H11.2115C11.6935 17.2689 12.1558 17.0775 12.4966 16.7367C12.8374 16.3958 13.0288 15.9336 13.0288 15.4516V12.4228M15.4519 12.4228L17.875 9.9997M17.875 9.9997L15.4519 7.57662M17.875 9.9997H7.57692" stroke="#015551" stroke-width="1.5" stroke-linecap="round" stroke-linejoin="round"/>
</svg>
