<svg width="20" height="20" viewBox="0 0 20 20" fill="none" xmlns="http://www.w3.org/2000/svg">
<path d="M13.0286 5.15385C13.0286 5.95715 12.7095 6.72754 12.1415 7.29556C11.5735 7.86358 10.8031 8.18269 9.99976 8.18269C9.19646 8.18269 8.42606 7.86358 7.85804 7.29556C7.29002 6.72754 6.97091 5.95715 6.97091 5.15385C6.97091 4.35055 7.29002 3.58015 7.85804 3.01213C8.42606 2.44411 9.19646 2.125 9.99976 2.125C10.8031 2.125 11.5735 2.44411 12.1415 3.01213C12.7095 3.58015 13.0286 4.35055 13.0286 5.15385ZM3.94287 16.5568C3.96883 14.9676 4.61837 13.4522 5.75144 12.3375C6.8845 11.2228 8.41029 10.5981 9.99976 10.5981C11.5892 10.5981 13.115 11.2228 14.2481 12.3375C15.3811 13.4522 16.0307 14.9676 16.0566 16.5568C14.1565 17.4282 12.0902 17.8778 9.99976 17.875C7.83837 17.875 5.78683 17.4033 3.94287 16.5568Z" stroke="#015551" stroke-width="1.5" stroke-linecap="round" stroke-linejoin="round"/>
</svg>
