<svg width="81" height="80" viewBox="0 0 81 80" fill="none" xmlns="http://www.w3.org/2000/svg">
<circle cx="40.3252" cy="40" r="40" fill="#F5F7F8"/>
<rect width="43.2432" height="38.1035" transform="translate(18.7036 19.3267)" fill="#F5F7F8"/>
<path d="M45.0127 38.1328V32.5078C45.0127 31.2646 44.5189 30.0723 43.6398 29.1932C42.7607 28.3142 41.5684 27.8203 40.3252 27.8203C39.082 27.8203 37.8898 28.3142 37.0107 29.1932C36.1316 30.0723 35.6377 31.2646 35.6377 32.5078V38.1328M49.8327 35.6416L51.4115 50.6416C51.499 51.4728 50.849 52.1953 50.0127 52.1953H30.6377C30.4405 52.1955 30.2454 52.1542 30.0652 52.0741C29.8849 51.994 29.7235 51.8769 29.5915 51.7304C29.4595 51.5839 29.3598 51.4112 29.2988 51.2236C29.2379 51.036 29.217 50.8377 29.2377 50.6416L30.8177 35.6416C30.8542 35.296 31.0173 34.9762 31.2756 34.7438C31.5338 34.5113 31.869 34.3827 32.2165 34.3828H48.434C49.154 34.3828 49.7577 34.9266 49.8327 35.6416ZM36.1065 38.1328C36.1065 38.2571 36.0571 38.3764 35.9692 38.4643C35.8813 38.5522 35.7621 38.6016 35.6377 38.6016C35.5134 38.6016 35.3942 38.5522 35.3063 38.4643C35.2184 38.3764 35.169 38.2571 35.169 38.1328C35.169 38.0085 35.2184 37.8893 35.3063 37.8014C35.3942 37.7134 35.5134 37.6641 35.6377 37.6641C35.7621 37.6641 35.8813 37.7134 35.9692 37.8014C36.0571 37.8893 36.1065 38.0085 36.1065 38.1328ZM45.4815 38.1328C45.4815 38.2571 45.4321 38.3764 45.3442 38.4643C45.2563 38.5522 45.1371 38.6016 45.0127 38.6016C44.8884 38.6016 44.7692 38.5522 44.6813 38.4643C44.5934 38.3764 44.544 38.2571 44.544 38.1328C44.544 38.0085 44.5934 37.8893 44.6813 37.8014C44.7692 37.7134 44.8884 37.6641 45.0127 37.6641C45.1371 37.6641 45.2563 37.7134 45.3442 37.8014C45.4321 37.8893 45.4815 38.0085 45.4815 38.1328Z" stroke="#015551" stroke-width="2" stroke-linecap="round" stroke-linejoin="round"/>
</svg>
