<svg width="81" height="80" viewBox="0 0 81 80" fill="none" xmlns="http://www.w3.org/2000/svg">
<circle cx="40.5" cy="40" r="40" fill="#F5F7F8"/>
<rect width="43.2432" height="38.1035" transform="translate(18.8784 19.3267)" fill="#F5F7F8"/>
<path d="M28.3125 28.7578H30.045C30.6825 28.7578 31.2388 29.1866 31.4038 29.8016L31.8825 31.5978M31.8825 31.5978C38.8458 31.4027 45.8024 32.1768 52.5525 33.8978C51.5225 36.9653 50.2988 39.9453 48.8975 42.8203H34.875M31.8825 31.5978L34.875 42.8203M34.875 42.8203C33.8804 42.8203 32.9266 43.2154 32.2233 43.9187C31.5201 44.6219 31.125 45.5758 31.125 46.5703H50.8125M33 50.3203C33 50.569 32.9012 50.8074 32.7254 50.9832C32.5496 51.159 32.3111 51.2578 32.0625 51.2578C31.8139 51.2578 31.5754 51.159 31.3996 50.9832C31.2238 50.8074 31.125 50.569 31.125 50.3203C31.125 50.0717 31.2238 49.8332 31.3996 49.6574C31.5754 49.4816 31.8139 49.3828 32.0625 49.3828C32.3111 49.3828 32.5496 49.4816 32.7254 49.6574C32.9012 49.8332 33 50.0717 33 50.3203ZM48.9375 50.3203C48.9375 50.569 48.8387 50.8074 48.6629 50.9832C48.4871 51.159 48.2486 51.2578 48 51.2578C47.7514 51.2578 47.5129 51.159 47.3371 50.9832C47.1613 50.8074 47.0625 50.569 47.0625 50.3203C47.0625 50.0717 47.1613 49.8332 47.3371 49.6574C47.5129 49.4816 47.7514 49.3828 48 49.3828C48.2486 49.3828 48.4871 49.4816 48.6629 49.6574C48.8387 49.8332 48.9375 50.0717 48.9375 50.3203Z" stroke="#015551" stroke-width="2" stroke-linecap="round" stroke-linejoin="round"/>
</svg>
