<svg width="20" height="20" viewBox="0 0 20 20" fill="none" xmlns="http://www.w3.org/2000/svg">
<path d="M13.0287 8.78846V5.15385C13.0287 4.35055 12.7095 3.58015 12.1415 3.01213C11.5735 2.44411 10.8031 2.125 9.99981 2.125C9.19651 2.125 8.42611 2.44411 7.85809 3.01213C7.29007 3.58015 6.97096 4.35055 6.97096 5.15385V8.78846M16.1431 7.17873L17.1632 16.871C17.2198 17.4082 16.7998 17.875 16.2594 17.875H3.74019C3.61275 17.8751 3.4867 17.8485 3.37023 17.7967C3.25376 17.745 3.14949 17.6693 3.06417 17.5746C2.97886 17.4799 2.91442 17.3683 2.87504 17.2471C2.83565 17.1259 2.82221 16.9978 2.83558 16.871L3.8565 7.17873C3.88005 6.95545 3.98543 6.7488 4.15232 6.59861C4.31921 6.44843 4.53579 6.36534 4.76031 6.36538H15.2393C15.7045 6.36538 16.0947 6.71673 16.1431 7.17873ZM7.27385 8.78846C7.27385 8.86879 7.24194 8.94583 7.18514 9.00263C7.12833 9.05944 7.05129 9.09135 6.97096 9.09135C6.89063 9.09135 6.81359 9.05944 6.75679 9.00263C6.69999 8.94583 6.66808 8.86879 6.66808 8.78846C6.66808 8.70813 6.69999 8.63109 6.75679 8.57429C6.81359 8.51749 6.89063 8.48558 6.97096 8.48558C7.05129 8.48558 7.12833 8.51749 7.18514 8.57429C7.24194 8.63109 7.27385 8.70813 7.27385 8.78846ZM13.3315 8.78846C13.3315 8.86879 13.2996 8.94583 13.2428 9.00263C13.186 9.05944 13.109 9.09135 13.0287 9.09135C12.9483 9.09135 12.8713 9.05944 12.8145 9.00263C12.7577 8.94583 12.7258 8.86879 12.7258 8.78846C12.7258 8.70813 12.7577 8.63109 12.8145 8.57429C12.8713 8.51749 12.9483 8.48558 13.0287 8.48558C13.109 8.48558 13.186 8.51749 13.2428 8.57429C13.2996 8.63109 13.3315 8.70813 13.3315 8.78846Z" stroke="#015551" stroke-width="1.5" stroke-linecap="round" stroke-linejoin="round"/>
</svg>
