<svg width="318" height="159" viewBox="0 0 318 159" fill="none" xmlns="http://www.w3.org/2000/svg">
<rect width="318" height="158.917" rx="5" fill="#57B4BA"/>
<g style="mix-blend-mode:plus-lighter" opacity="0.2">
<path fill-rule="evenodd" clip-rule="evenodd" d="M56.0649 94.2595H79.7384V66.9014H77.2019C65.5283 66.9014 56.0649 77.8377 56.0649 91.3283V94.2595Z" fill="#A3A3A3" fill-opacity="0.2"/>
<path fill-rule="evenodd" clip-rule="evenodd" d="M53.7559 94.2595H30.0824L30.0824 66.9014H32.6189C44.2925 66.9014 53.7559 77.8377 53.7559 91.3283V94.2595Z" fill="#A3A3A3" fill-opacity="0.2"/>
<path fill-rule="evenodd" clip-rule="evenodd" d="M26.6177 66.9016H3.23294L3.23294 94.2598H5.73845C17.2697 94.2598 26.6177 83.3235 26.6177 69.8328V66.9016Z" fill="#A3A3A3" fill-opacity="0.2"/>
<path fill-rule="evenodd" clip-rule="evenodd" d="M26.3286 98.5967H2.65518L2.65518 125.955H5.19162C16.8653 125.955 26.3286 115.019 26.3286 101.528V98.5967Z" fill="#A3A3A3" fill-opacity="0.2"/>
<path fill-rule="evenodd" clip-rule="evenodd" d="M53.1777 98.5967H29.793L29.793 125.955H32.2985C43.8298 125.955 53.1777 115.019 53.1777 101.528V98.5967Z" fill="#A3A3A3" fill-opacity="0.2"/>
<path d="M77.2388 98.5967V100.877H77.7651V101.097H79.7388V105.437H77.2388V109.996H79.7388V114.556H77.2388V119.115H79.7388V123.455H79.104V123.675H77.8364V123.455H77.2017C76.5482 123.455 75.9035 123.415 75.269 123.338L74.9673 125.819C73.4685 125.637 72.0172 125.273 70.6284 124.748L71.5122 122.412C70.3021 121.955 69.14 121.354 68.0425 120.622L66.6558 122.701C65.4257 121.881 64.2749 120.921 63.2173 119.842L65.0024 118.095C64.0858 117.159 63.2442 116.117 62.4927 114.982L60.4087 116.361C59.597 115.136 58.8835 113.819 58.2817 112.427L60.5757 111.436C60.0491 110.217 59.6153 108.932 59.2876 107.592L56.8589 108.186C56.5105 106.761 56.2731 105.283 56.1538 103.766L58.645 103.57C58.6054 103.066 58.5799 102.557 58.5698 102.043L58.5649 101.528V100.795H58.0376V99.3291H58.5649V98.5967H61.9829V101.097H65.9292V98.5967H69.8745V101.097H73.8198V98.5967H77.2388Z" stroke="#A3A3A3" stroke-opacity="0.3" stroke-width="5" stroke-dasharray="4 4"/>
<path d="M24.1182 29.8674V27.5872H24.6445V27.3674H26.6182V23.0276H24.1182V18.468H26.6182V13.9084H24.1182L24.1182 9.34888H26.6182V5.00903H25.9834V4.78931H24.7158V5.00903H24.0811C23.4276 5.00904 22.7829 5.04919 22.1484 5.12622L21.8467 2.64478C20.3479 2.82678 18.8966 3.19131 17.5078 3.71606L18.3916 6.052C17.1815 6.5092 16.0194 7.11043 14.9219 7.84204L13.5352 5.76294C12.3051 6.58293 11.1543 7.54284 10.0967 8.62231L11.8818 10.3694C10.9652 11.3048 10.1236 12.3473 9.37207 13.4817L7.28809 12.1028C6.47641 13.3282 5.76294 14.6448 5.16113 16.0374L7.45508 17.0286C6.92854 18.2469 6.49473 19.5323 6.16699 20.8723L3.73828 20.2786C3.38987 21.7032 3.15247 23.1809 3.0332 24.6985L5.52441 24.8938C5.48479 25.3979 5.4593 25.9072 5.44922 26.4211L5.44434 26.9358V27.6692H4.91699V29.135H5.44434V29.8674H8.8623V27.3674H12.8086V29.8674L16.7539 29.8674V27.3674L20.6992 27.3674V29.8674H24.1182Z" stroke="#A3A3A3" stroke-opacity="0.3" stroke-width="5" stroke-dasharray="4 4"/>
<path d="M57.9868 2.50903V4.78931H57.4604V5.00903H55.4868V9.34888H57.9868V13.9084H55.4868V18.468H57.9868V23.0276H55.4868V27.3674H56.1216V27.5872H57.3892V27.3674H58.0239C58.6774 27.3674 59.322 27.3273 59.9565 27.2502L60.2583 29.7317C61.757 29.5497 63.2084 29.1851 64.5972 28.6604L63.7134 26.3245C64.9235 25.8673 66.0856 25.266 67.1831 24.5344L68.5698 26.6135C69.7998 25.7935 70.9506 24.8336 72.0083 23.7542L70.2231 22.0071C71.1398 21.0716 71.9814 20.0292 72.7329 18.8948L74.8169 20.2737C75.6286 19.0483 76.342 17.7317 76.9438 16.3391L74.6499 15.3479C75.1764 14.1295 75.6103 12.8442 75.938 11.5042L78.3667 12.0979C78.7151 10.6733 78.9525 9.19555 79.0718 7.67798L76.5806 7.48267C76.6202 6.97857 76.6457 6.46928 76.6558 5.95532L76.6606 5.44067V4.70728H77.188V3.24146H76.6606V2.50903L73.2427 2.50903V5.00903L69.2964 5.00903V2.50903L65.3511 2.50903V5.00903L61.4058 5.00903V2.50903L57.9868 2.50903Z" stroke="#A3A3A3" stroke-opacity="0.3" stroke-width="5" stroke-dasharray="4 4"/>
<path fill-rule="evenodd" clip-rule="evenodd" d="M29.2163 2.50903L52.601 2.50903V29.8672H50.0955C38.5643 29.8672 29.2163 18.9309 29.2163 5.44027V2.50903Z" fill="#A3A3A3" fill-opacity="0.2"/>
<path fill-rule="evenodd" clip-rule="evenodd" d="M29.2163 61.5627H52.601V34.2046H50.0955C38.5643 34.2046 29.2163 45.1409 29.2163 58.6315V61.5627Z" fill="#A3A3A3" fill-opacity="0.2"/>
<path fill-rule="evenodd" clip-rule="evenodd" d="M78.5835 34.2046H55.1988V61.5628H57.7043C69.2355 61.5628 78.5835 50.6264 78.5835 37.1358V34.2046Z" fill="#A3A3A3" fill-opacity="0.2"/>
<path fill-rule="evenodd" clip-rule="evenodd" d="M2.94434 34.2046H26.6178L26.6178 61.5628H24.0813C12.4077 61.5628 2.94434 50.6264 2.94434 37.1358L2.94434 34.2046Z" fill="#A3A3A3" fill-opacity="0.2"/>
</g>
<g style="mix-blend-mode:plus-lighter" opacity="0.2">
<path fill-rule="evenodd" clip-rule="evenodd" d="M314.838 156.534H291.165V129.176H293.701C305.375 129.176 314.838 140.112 314.838 153.603V156.534Z" fill="#A3A3A3" fill-opacity="0.2"/>
<path fill-rule="evenodd" clip-rule="evenodd" d="M287.701 129.176H264.316V156.534H266.821C278.353 156.534 287.701 145.597 287.701 132.107V129.176Z" fill="#A3A3A3" fill-opacity="0.2"/>
<path fill-rule="evenodd" clip-rule="evenodd" d="M237.755 129.176H261.429V156.534H258.892C247.219 156.534 237.755 145.597 237.755 132.107V129.176Z" fill="#A3A3A3" fill-opacity="0.2"/>
</g>
<g style="mix-blend-mode:plus-lighter" opacity="0.2">
<path d="M78.9204 156.534V154.254H79.4468V154.034H81.4204V149.694H78.9204V145.135H81.4204V140.575H78.9204V136.015H81.4204V131.676H80.7856V131.456H79.5181V131.676H78.8833C78.2298 131.676 77.5852 131.716 76.9507 131.793L76.6489 129.311C75.1502 129.493 73.6988 129.858 72.3101 130.383L73.1938 132.719C71.9837 133.176 70.8216 133.777 69.7241 134.509L68.3374 132.429C67.1074 133.249 65.9566 134.209 64.8989 135.289L66.6841 137.036C65.7674 137.971 64.9258 139.014 64.1743 140.148L62.0903 138.769C61.2787 139.995 60.5652 141.311 59.9634 142.704L62.2573 143.695C61.7308 144.913 61.297 146.199 60.9692 147.539L58.5405 146.945C58.1921 148.37 57.9547 149.847 57.8354 151.365L60.3267 151.56C60.287 152.064 60.2615 152.574 60.2515 153.088L60.2466 153.602V154.336H59.7192V155.802H60.2466V156.534H63.6646V154.034H67.6108V156.534H71.5562V154.034H75.5015V156.534H78.9204Z" stroke="#A3A3A3" stroke-opacity="0.3" stroke-width="5" stroke-dasharray="4 4"/>
<path fill-rule="evenodd" clip-rule="evenodd" d="M55.4375 156.534H31.7641L31.7641 129.176H34.3005C45.9741 129.176 55.4375 140.112 55.4375 153.603V156.534Z" fill="#A3A3A3" fill-opacity="0.2"/>
<path fill-rule="evenodd" clip-rule="evenodd" d="M28.2988 129.176H4.9141L4.9141 156.534H7.41961C18.9509 156.534 28.2988 145.597 28.2988 132.107V129.176Z" fill="#A3A3A3" fill-opacity="0.2"/>
<path d="M112.79 129.176V131.456H112.264V131.676H110.29V136.015H112.79V140.575H110.29V145.135H112.79V149.694H110.29V154.034H110.925V154.254H112.192V154.034H112.827C113.481 154.034 114.125 153.994 114.76 153.917L115.062 156.398C116.56 156.216 118.012 155.852 119.4 155.327L118.517 152.991C119.727 152.534 120.889 151.933 121.986 151.201L123.373 153.28C124.603 152.46 125.754 151.5 126.812 150.421L125.026 148.674C125.943 147.738 126.785 146.696 127.536 145.561L129.62 146.94C130.432 145.715 131.145 144.398 131.747 143.006L129.453 142.014C129.98 140.796 130.413 139.511 130.741 138.171L133.17 138.764C133.518 137.34 133.756 135.862 133.875 134.344L131.384 134.149C131.423 133.645 131.449 133.136 131.459 132.622L131.464 132.107V131.374H131.991V129.908H131.464V129.176H128.046V131.676H124.1V129.176H120.154V131.676H116.209V129.176H112.79Z" stroke="#A3A3A3" stroke-opacity="0.3" stroke-width="5" stroke-dasharray="4 4"/>
<path fill-rule="evenodd" clip-rule="evenodd" d="M84.019 129.176H107.404V156.534H104.898C93.367 156.534 84.019 145.597 84.019 132.107V129.176Z" fill="#A3A3A3" fill-opacity="0.2"/>
</g>
<g style="mix-blend-mode:plus-lighter" opacity="0.2">
<path fill-rule="evenodd" clip-rule="evenodd" d="M214.385 159H238.059V131.642H235.522C223.849 131.642 214.385 142.578 214.385 156.069V159Z" fill="#A3A3A3" fill-opacity="0.1"/>
<path fill-rule="evenodd" clip-rule="evenodd" d="M212.075 159H188.401V131.642H190.938C202.611 131.642 212.075 142.578 212.075 156.069V159Z" fill="#A3A3A3" fill-opacity="0.1"/>
<path fill-rule="evenodd" clip-rule="evenodd" d="M184.937 131.642H161.552V159H164.058C175.589 159 184.937 148.063 184.937 134.573V131.642Z" fill="#A3A3A3" fill-opacity="0.1"/>
<path fill-rule="evenodd" clip-rule="evenodd" d="M134.992 131.642H158.666V159H156.129C144.456 159 134.992 148.063 134.992 134.573V131.642Z" fill="#A3A3A3" fill-opacity="0.1"/>
<path fill-rule="evenodd" clip-rule="evenodd" d="M158.955 94.6077H135.281V67.2495H137.818C149.491 67.2495 158.955 78.1858 158.955 91.6764V94.6077Z" fill="#A3A3A3" fill-opacity="0.1"/>
<path fill-rule="evenodd" clip-rule="evenodd" d="M131.816 67.2502H108.432V94.6084H110.937C122.468 94.6084 131.816 83.6721 131.816 70.1815V67.2502Z" fill="#A3A3A3" fill-opacity="0.1"/>
<path fill-rule="evenodd" clip-rule="evenodd" d="M81.8711 67.2502H105.545V94.6084H103.008C91.3344 94.6084 81.8711 83.6721 81.8711 70.1815V67.2502Z" fill="#A3A3A3" fill-opacity="0.1"/>
<path fill-rule="evenodd" clip-rule="evenodd" d="M81.8711 126.303H105.545V98.9453H103.008C91.3344 98.9453 81.8711 109.882 81.8711 123.372V126.303Z" fill="#A3A3A3" fill-opacity="0.1"/>
<path d="M103.571 126.303V125.303H104.545V124.023H105.545V119.464H104.545V114.904H105.545V110.344H104.545V105.785H105.545V101.225H104.545V98.9451H103.643V99.9451H103.008C102.294 99.9451 101.588 99.9887 100.894 100.073L100.773 99.0808C99.2747 99.2628 97.8233 99.6274 96.4346 100.152L96.7881 101.085C95.468 101.583 94.2051 102.238 93.0166 103.03L92.4619 102.199C91.2319 103.019 90.0811 103.979 89.0234 105.058L89.7373 105.756C88.7523 106.761 87.8506 107.878 87.0479 109.09L86.2148 108.539C85.4032 109.764 84.6897 111.081 84.0879 112.473L85.0049 112.869C84.4448 114.165 83.9843 115.531 83.6367 116.952L82.665 116.715C82.3166 118.139 82.0792 119.617 81.96 121.135L82.9561 121.212C82.9141 121.745 82.8866 122.284 82.876 122.827L82.8711 123.372V124.105H81.8711V125.303H83.8438V126.303H87.7891V125.303H91.7354V126.303H95.6807V125.303H99.626V126.303H103.571Z" stroke="#A3A3A3" stroke-opacity="0.3" stroke-width="2" stroke-dasharray="4 4"/>
<path fill-rule="evenodd" clip-rule="evenodd" d="M131.527 98.9456H107.854V126.304H110.39C122.064 126.304 131.527 115.367 131.527 101.877V98.9456Z" fill="#A3A3A3" fill-opacity="0.1"/>
<path fill-rule="evenodd" clip-rule="evenodd" d="M237.48 67.2502H213.807V94.6084H216.343C228.017 94.6084 237.48 83.6721 237.48 70.1815V67.2502Z" fill="#A3A3A3" fill-opacity="0.1"/>
<path d="M216.307 67.2502V69.5305H215.78V69.7502H213.807V74.0901H216.307V78.6497H213.807V83.2092H216.307V87.7688H213.807V92.1086H214.441V92.3284H215.709V92.1086H216.344C216.997 92.1086 217.642 92.0685 218.276 91.9915L218.578 94.4729C220.077 94.2909 221.528 93.9264 222.917 93.4016L222.033 91.0657C223.243 90.6085 224.405 90.0072 225.503 89.2756L226.89 91.3547C228.12 90.5347 229.27 89.5748 230.328 88.4954L228.543 86.7483C229.46 85.8128 230.301 84.7704 231.053 83.636L233.137 85.0149C233.948 83.7895 234.662 82.4729 235.264 81.0803L232.97 80.0891C233.496 78.8707 233.93 77.5854 234.258 76.2454L236.687 76.8391C237.035 75.4145 237.272 73.9368 237.392 72.4192L234.9 72.2239C234.94 71.7198 234.966 71.2105 234.976 70.6965L234.98 70.1819V69.4485H235.508V67.9827H234.98V67.2502H231.562V69.7502H227.616V67.2502H223.671V69.7502H219.726V67.2502H216.307Z" stroke="#A3A3A3" stroke-opacity="0.3" stroke-width="5" stroke-dasharray="4 4"/>
<path fill-rule="evenodd" clip-rule="evenodd" d="M187.536 67.2502H210.92V94.6084H208.415C196.884 94.6084 187.536 83.6721 187.536 70.1815V67.2502Z" fill="#A3A3A3" fill-opacity="0.1"/>
<path fill-rule="evenodd" clip-rule="evenodd" d="M187.536 126.303H210.92V98.9453H208.415C196.884 98.9453 187.536 109.882 187.536 123.372V126.303Z" fill="#A3A3A3" fill-opacity="0.1"/>
<path fill-rule="evenodd" clip-rule="evenodd" d="M236.903 98.9456H213.518V126.304H216.024C227.555 126.304 236.903 115.367 236.903 101.877V98.9456Z" fill="#A3A3A3" fill-opacity="0.1"/>
<path fill-rule="evenodd" clip-rule="evenodd" d="M158.376 98.9456H134.991V126.304H137.497C149.028 126.304 158.376 115.367 158.376 101.877V98.9456Z" fill="#A3A3A3" fill-opacity="0.1"/>
<path d="M137.491 98.9456V101.226H136.94V101.446H134.991V105.785H137.491V110.345H134.991V114.905H137.491V119.464H134.991V123.804H135.617V124.024H136.87V123.804H137.497C138.145 123.804 138.783 123.764 139.412 123.686L139.719 126.166C141.208 125.982 142.65 125.613 144.029 125.082L143.131 122.751C144.327 122.291 145.475 121.685 146.56 120.948L147.965 123.016C149.179 122.191 150.315 121.226 151.358 120.142L149.558 118.41C150.459 117.473 151.287 116.429 152.026 115.293L154.121 116.655C154.917 115.43 155.618 114.116 156.208 112.726L153.907 111.75C154.423 110.535 154.847 109.252 155.168 107.916L157.6 108.499C157.94 107.082 158.173 105.612 158.29 104.103L155.798 103.91C155.837 103.409 155.861 102.902 155.871 102.39L155.876 101.877V101.144H156.428V99.678H155.876V98.9456H152.53V101.446H148.633V98.9456H144.735V101.446H140.838V98.9456H137.491Z" stroke="#A3A3A3" stroke-opacity="0.3" stroke-width="5" stroke-dasharray="4 4"/>
<path fill-rule="evenodd" clip-rule="evenodd" d="M161.263 98.9456H184.937V126.304H182.4C170.727 126.304 161.263 115.367 161.263 101.877V98.9456Z" fill="#A3A3A3" fill-opacity="0.1"/>
</g>
<g style="mix-blend-mode:plus-lighter" opacity="0.2">
<path fill-rule="evenodd" clip-rule="evenodd" d="M292.946 33.9026H316.619V61.2608H314.083C302.409 61.2608 292.946 50.3244 292.946 36.8338V33.9026Z" fill="#A3A3A3" fill-opacity="0.2"/>
<path fill-rule="evenodd" clip-rule="evenodd" d="M290.637 33.9026H266.964V61.2608H269.5C281.174 61.2608 290.637 50.3244 290.637 36.8338V33.9026Z" fill="#A3A3A3" fill-opacity="0.2"/>
<path fill-rule="evenodd" clip-rule="evenodd" d="M263.499 61.2605H240.114V33.9023H242.62C254.151 33.9023 263.499 44.8386 263.499 58.3293V61.2605Z" fill="#A3A3A3" fill-opacity="0.2"/>
<path fill-rule="evenodd" clip-rule="evenodd" d="M213.554 61.2605H237.227V33.9023H234.691C223.017 33.9023 213.554 44.8386 213.554 58.3293V61.2605Z" fill="#A3A3A3" fill-opacity="0.2"/>
<path fill-rule="evenodd" clip-rule="evenodd" d="M213.554 2.20728L237.227 2.20728V29.5654H234.691C223.017 29.5654 213.554 18.6291 213.554 5.13851V2.20728Z" fill="#A3A3A3" fill-opacity="0.2"/>
<path fill-rule="evenodd" clip-rule="evenodd" d="M263.21 29.5654L239.537 29.5654V2.20726H242.073C253.747 2.20726 263.21 13.1436 263.21 26.6342V29.5654Z" fill="#A3A3A3" fill-opacity="0.2"/>
<path fill-rule="evenodd" clip-rule="evenodd" d="M290.059 29.5654L266.674 29.5654V2.20726H269.18C280.711 2.20726 290.059 13.1436 290.059 26.6342V29.5654Z" fill="#A3A3A3" fill-opacity="0.2"/>
<path d="M314.12 29.5654V27.2852H314.646V27.0654H316.62V22.7256H314.12V18.166H316.62V13.6064H314.12V9.04687H316.62V4.70703H315.985V4.4873H314.717V4.70703H314.083C313.429 4.70704 312.784 4.74718 312.15 4.82422L311.848 2.34277C310.349 2.52478 308.898 2.88931 307.509 3.41406L308.393 5.75C307.183 6.2072 306.021 6.80843 304.923 7.54004L303.537 5.46094C302.307 6.28093 301.156 7.24084 300.098 8.32031L301.883 10.0674C300.967 11.0028 300.125 12.0453 299.374 13.1797L297.29 11.8008C296.478 13.0262 295.764 14.3428 295.163 15.7354L297.457 16.7266C296.93 17.9449 296.496 19.2303 296.168 20.5703L293.74 19.9766C293.391 21.4012 293.154 22.8789 293.035 24.3965L295.526 24.5918C295.486 25.0959 295.461 25.6052 295.451 26.1191L295.446 26.6338V27.3672H294.918V28.833H295.446V29.5654H298.864V27.0654H302.81V29.5654L306.755 29.5654V27.0654L310.701 27.0654V29.5654H314.12Z" stroke="#A3A3A3" stroke-opacity="0.3" stroke-width="5" stroke-dasharray="4 4"/>
<path d="M261 98.2949V100.575H261.526V100.795H263.5V105.135H261V109.694H263.5V114.254H261V118.813H263.5V123.153H262.865V123.373H261.597V123.153H260.962C260.309 123.153 259.664 123.113 259.03 123.036L258.728 125.518C257.229 125.336 255.778 124.971 254.389 124.446L255.273 122.11C254.063 121.653 252.901 121.052 251.803 120.32L250.417 122.399C249.186 121.579 248.036 120.62 246.978 119.54L248.763 117.793C247.847 116.858 247.005 115.815 246.253 114.681L244.169 116.06C243.358 114.834 242.644 113.518 242.042 112.125L244.336 111.134C243.81 109.915 243.376 108.63 243.048 107.29L240.62 107.884C240.271 106.459 240.034 104.981 239.915 103.464L242.406 103.269C242.366 102.764 242.341 102.255 242.331 101.741L242.326 101.227V100.493H241.798V99.0273H242.326V98.2949H245.744V100.795H249.69V98.2949H253.635V100.795H257.581V98.2949H261Z" stroke="#A3A3A3" stroke-opacity="0.3" stroke-width="5" stroke-dasharray="4 4"/>
<path fill-rule="evenodd" clip-rule="evenodd" d="M237.516 98.2949H213.843V125.653H216.379C228.053 125.653 237.516 114.717 237.516 101.226V98.2949Z" fill="#A3A3A3" fill-opacity="0.2"/>
<path d="M182.132 66.5996V67.5996H183.106V68.8799H184.106V73.4395H183.106V77.999H184.106V82.5586H183.106V87.1182H184.106V91.6777H183.106V93.958H182.204V92.958H181.569C180.855 92.958 180.149 92.9144 179.455 92.8301L179.334 93.8223C177.836 93.6403 176.384 93.2757 174.996 92.751L175.349 91.8184C174.029 91.3196 172.766 90.6653 171.578 89.873L171.023 90.7041C169.793 89.8841 168.642 88.9242 167.584 87.8447L168.298 87.1475C167.313 86.1422 166.412 85.0253 165.609 83.8135L164.776 84.3643C163.964 83.1389 163.251 81.8223 162.649 80.4297L163.566 80.0342C163.006 78.7382 162.545 77.3724 162.198 75.9512L161.226 76.1885C160.878 74.7639 160.64 73.2861 160.521 71.7686L161.517 71.6914C161.475 71.1582 161.448 70.6194 161.437 70.0762L161.432 69.5312V68.7979H160.432V67.5996H162.405V66.5996H166.35V67.5996H170.296V66.5996H174.242V67.5996H178.187V66.5996H182.132Z" stroke="#A3A3A3" stroke-opacity="0.3" stroke-width="2" stroke-dasharray="4 4"/>
<path d="M294.868 125.653V123.373H294.341V123.153H292.368V118.813H294.868V114.254H292.368V109.694H294.868V105.135H292.368V100.795H293.002V100.575H294.27V100.795H294.905C295.558 100.795 296.203 100.835 296.837 100.912L297.139 98.4307C298.638 98.6127 300.089 98.9772 301.478 99.502L300.594 101.838C301.804 102.295 302.966 102.896 304.064 103.628L305.451 101.549C306.681 102.369 307.832 103.329 308.889 104.408L307.104 106.155C308.021 107.091 308.862 108.133 309.614 109.268L311.698 107.889C312.509 109.114 313.223 110.431 313.825 111.823L311.531 112.814C312.057 114.033 312.491 115.318 312.819 116.658L315.248 116.064C315.596 117.489 315.833 118.967 315.953 120.484L313.461 120.68C313.501 121.184 313.527 121.693 313.537 122.207L313.542 122.722V123.455H314.069V124.921H313.542V125.653H310.124V123.153H306.177V125.653H302.232V123.153H298.287V125.653H294.868Z" stroke="#A3A3A3" stroke-opacity="0.3" stroke-width="5" stroke-dasharray="4 4"/>
<path fill-rule="evenodd" clip-rule="evenodd" d="M266.097 125.653H289.482V98.2951H286.976C275.445 98.2951 266.097 109.231 266.097 122.722V125.653Z" fill="#A3A3A3" fill-opacity="0.2"/>
<path fill-rule="evenodd" clip-rule="evenodd" d="M266.097 66.5994H289.482V93.9575H286.976C275.445 93.9575 266.097 83.0212 266.097 69.5306V66.5994Z" fill="#A3A3A3" fill-opacity="0.2"/>
<path fill-rule="evenodd" clip-rule="evenodd" d="M315.464 93.9575H292.08V66.5993H294.585C306.116 66.5993 315.464 77.5357 315.464 91.0263V93.9575Z" fill="#A3A3A3" fill-opacity="0.2"/>
<path fill-rule="evenodd" clip-rule="evenodd" d="M239.826 93.9575H263.499V66.5993H260.963C249.289 66.5993 239.826 77.5357 239.826 91.0263V93.9575Z" fill="#A3A3A3" fill-opacity="0.2"/>
</g>
</svg>
