<svg width="80" height="80" viewBox="0 0 80 80" fill="none" xmlns="http://www.w3.org/2000/svg">
<circle cx="40" cy="40" r="40" fill="#F5F7F8"/>
<rect width="43.2432" height="38.1035" transform="translate(18.3784 19.3267)" fill="#F5F7F8"/>
<path d="M49.375 40.0077C49.375 38.4677 49.3175 36.9415 49.2025 35.4302C49.1141 34.2329 48.5984 33.1072 47.7494 32.2583C46.9005 31.4094 45.7748 30.8937 44.5775 30.8052C41.5302 30.5753 38.4698 30.5753 35.4225 30.8052C34.2252 30.8937 33.0995 31.4094 32.2506 32.2583C31.4016 33.1072 30.8859 34.2329 30.7975 35.4302C30.7763 35.7052 30.7575 35.9815 30.74 36.2577M49.375 40.0077L53.125 36.2577M49.375 40.0077L45.625 36.2577M30.625 40.0077C30.625 41.5477 30.6825 43.074 30.7975 44.5852C30.8859 45.7826 31.4016 46.9082 32.2506 47.7572C33.0995 48.6061 34.2252 49.1218 35.4225 49.2102C38.4698 49.4402 41.5302 49.4402 44.5775 49.2102C45.7748 49.1218 46.9005 48.6061 47.7494 47.7572C48.5984 46.9082 49.1141 45.7826 49.2025 44.5852C49.2237 44.3102 49.2425 44.034 49.26 43.7577M30.625 40.0077L34.375 43.7577M30.625 40.0077L26.875 43.7577" stroke="#015551" stroke-width="2" stroke-linecap="round" stroke-linejoin="round"/>
</svg>
