<svg width="27" height="26" viewBox="0 0 27 26" fill="none" xmlns="http://www.w3.org/2000/svg">
<path d="M1.3125 1.75781H3.045C3.6825 1.75781 4.23875 2.18656 4.40375 2.80156L4.8825 4.59781M4.8825 4.59781C11.8458 4.40267 18.8024 5.17675 25.5525 6.89781C24.5225 9.96531 23.2988 12.9453 21.8975 15.8203H7.875M4.8825 4.59781L7.875 15.8203M7.875 15.8203C6.88044 15.8203 5.92661 16.2154 5.22335 16.9187C4.52009 17.6219 4.125 18.5758 4.125 19.5703H23.8125M6 23.3203C6 23.569 5.90123 23.8074 5.72541 23.9832C5.5496 24.159 5.31114 24.2578 5.0625 24.2578C4.81386 24.2578 4.5754 24.159 4.39959 23.9832C4.22377 23.8074 4.125 23.569 4.125 23.3203C4.125 23.0717 4.22377 22.8332 4.39959 22.6574C4.5754 22.4816 4.81386 22.3828 5.0625 22.3828C5.31114 22.3828 5.5496 22.4816 5.72541 22.6574C5.90123 22.8332 6 23.0717 6 23.3203ZM21.9375 23.3203C21.9375 23.569 21.8387 23.8074 21.6629 23.9832C21.4871 24.159 21.2486 24.2578 21 24.2578C20.7514 24.2578 20.5129 24.159 20.3371 23.9832C20.1613 23.8074 20.0625 23.569 20.0625 23.3203C20.0625 23.0717 20.1613 22.8332 20.3371 22.6574C20.5129 22.4816 20.7514 22.3828 21 22.3828C21.2486 22.3828 21.4871 22.4816 21.6629 22.6574C21.8387 22.8332 21.9375 23.0717 21.9375 23.3203Z" stroke="#015551" stroke-width="2" stroke-linecap="round" stroke-linejoin="round"/>
</svg>
