<svg width="30" height="30" viewBox="0 0 30 30" fill="none" xmlns="http://www.w3.org/2000/svg">
<path d="M24.375 15.0077C24.375 13.4677 24.3175 11.9415 24.2025 10.4302C24.1141 9.23292 23.5984 8.10723 22.7494 7.25829C21.9005 6.40936 20.7748 5.89368 19.5775 5.80524C16.5302 5.57534 13.4698 5.57534 10.4225 5.80524C9.22518 5.89368 8.09949 6.40936 7.25056 7.25829C6.40162 8.10723 5.88594 9.23292 5.7975 10.4302C5.77625 10.7052 5.7575 10.9815 5.74 11.2577M24.375 15.0077L28.125 11.2577M24.375 15.0077L20.625 11.2577M5.625 15.0077C5.625 16.5477 5.6825 18.074 5.7975 19.5852C5.88594 20.7826 6.40162 21.9082 7.25056 22.7572C8.09949 23.6061 9.22518 24.1218 10.4225 24.2102C13.4698 24.4402 16.5302 24.4402 19.5775 24.2102C20.7748 24.1218 21.9005 23.6061 22.7494 22.7572C23.5984 21.9082 24.1141 20.7826 24.2025 19.5852C24.2237 19.3102 24.2425 19.034 24.26 18.7577M5.625 15.0077L9.375 18.7577M5.625 15.0077L1.875 18.7577" stroke="#015551" stroke-width="2" stroke-linecap="round" stroke-linejoin="round"/>
</svg>
